<svg width="512" height="512" viewBox="0 0 512 512" fill="none" xmlns="http://www.w3.org/2000/svg">
<rect width="512" height="512" rx="76" fill="url(#paint0_linear_290_451)"/>
<path d="M237.997 84.7762C175.167 91.8757 120.349 131.184 95.6357 186.832C86.2637 207.974 81.8132 227.811 81.0802 251.563C80.2425 280.275 85.9495 305.906 99.039 332.112C128.464 390.892 189.932 429 255.432 429C289.727 429 323.759 418.559 353.446 398.984C386.327 377.267 411.197 344.066 422.506 306.689C432.926 272.444 432.454 236.059 421.25 202.441C414.862 183.178 405.438 166.108 392.244 149.56C363.394 113.54 318.105 89.0046 272.082 84.463C264.595 83.7321 245.851 83.8887 237.997 84.7762ZM268.626 91.8235C290.826 93.2852 309.989 98.4533 330.409 108.476C341.194 113.749 346.797 117.142 355.226 123.511C374.704 138.179 393.5 163.915 402.087 187.72C409.941 209.436 410.045 238.2 402.296 252.66C399.574 257.776 394.652 261.482 392.715 259.864C391.615 258.976 391.72 257.828 393.5 250.989C395.647 242.793 395.594 242.48 392.505 246.134C384.495 255.635 371.353 263.152 356.85 266.441C328.053 272.966 297.004 264.718 270.249 243.472C235.85 216.222 218.153 170.493 229.358 137.762C233.442 125.703 240.091 117.873 250.301 112.913C258.364 109.05 266.689 107.85 279.046 108.946C282.763 109.259 285.905 109.416 286.009 109.311C286.219 109.103 273.705 106.649 268.103 105.866C266.113 105.553 260.668 105.187 256.061 104.979C219.881 103.621 191.922 117.403 172.445 146.323C156.685 169.605 150.297 199.413 155.481 224.992C156.214 228.646 156.842 233.345 156.842 235.433V239.244L155.324 234.806C153.282 228.96 147.47 215.491 147.418 216.692C147.418 217.214 148.36 221.338 149.512 225.932C152.339 237.156 152.287 237.573 148.779 233.293C145.376 229.116 144.224 226.402 143.386 220.555C143.02 217.632 141.92 210.532 141.03 204.79C138.883 191.322 138.726 180.098 140.506 171.798C144.119 154.989 152.601 140.685 167.104 126.747C193.493 101.429 229.201 89.109 268.626 91.8235ZM128.202 164.646C128.307 165.951 128.307 171.432 128.202 176.757C127.679 194.767 130.087 210.01 136.737 230.265C138.046 234.232 138.988 237.625 138.883 237.782C138.517 238.095 134.59 231.361 132.496 226.715C128.726 218.519 125.532 207.191 124.118 196.96C123.071 189.547 123.019 176.809 124.066 171.537C124.851 167.517 126.789 162.245 127.522 162.245C127.731 162.245 128.045 163.341 128.202 164.646ZM101.709 185.84C99.5102 191.269 96.7876 200.196 95.0598 207.348C87.2585 239.87 89.4051 276.151 100.872 305.698C113.804 338.898 136.213 366.67 166.267 386.612C204.854 412.243 249.097 420.387 292.973 409.946C315.801 404.465 338.367 393.293 357.897 377.789C393.238 349.704 415.019 309.717 419.993 263.779C421.04 254.017 421.04 235.694 419.941 225.671C419.051 217.11 416.799 205.208 414.705 198.265C414.024 195.811 413.448 193.566 413.448 193.305C413.448 192.261 416.171 199.778 417.899 205.782C431.355 252.555 423.449 304.184 396.851 343.962C384.076 363.016 368.368 378.677 349.258 391.362C329.047 404.778 306.01 414.018 283.025 417.985C272.396 419.812 266.27 420.282 254.228 420.282C232.395 420.282 213.179 416.68 193.388 408.85C133.909 385.463 92.9655 332.321 86.4207 270.148C83.541 242.846 88.6721 211.054 99.5626 188.294C102.756 181.664 103.856 180.359 101.709 185.84Z" fill="url(#paint1_linear_290_451)"/>
<path fill-rule="evenodd" clip-rule="evenodd" d="M351.772 216.53C340.867 227.994 316.5 222.587 297.349 204.454C278.197 186.321 271.512 162.328 282.417 150.864C293.323 139.399 317.689 144.806 336.841 162.939C355.993 181.072 362.678 205.066 351.772 216.53ZM336.435 173.475C330.763 163.978 319.125 156.001 307.292 153.627C299.957 152.107 296.73 152.012 293.796 153.057C292.231 153.722 292.72 154.007 296.241 154.576C306.51 156.191 319.712 162.079 319.712 165.118C319.712 165.783 318.441 167.207 316.778 168.347C313.746 170.436 313.062 172.906 315.018 174.805C316.778 176.515 319.517 176.23 323.233 174.045C326.851 171.861 327.047 171.956 328.025 177.844C329.198 184.872 331.056 187.341 335.066 187.341C339.956 187.341 340.543 180.503 336.435 173.475Z" fill="url(#paint2_linear_290_451)"/>
<defs>
<linearGradient id="paint0_linear_290_451" x1="256" y1="512" x2="256" y2="0" gradientUnits="userSpaceOnUse">
<stop stop-color="#272727"/>
<stop offset="1" stop-color="#1A1A1A"/>
</linearGradient>
<linearGradient id="paint1_linear_290_451" x1="255.5" y1="429" x2="255.5" y2="84" gradientUnits="userSpaceOnUse">
<stop stop-color="white"/>
<stop offset="1" stop-color="#D4F2FF"/>
</linearGradient>
<linearGradient id="paint2_linear_290_451" x1="255.5" y1="429" x2="255.5" y2="84" gradientUnits="userSpaceOnUse">
<stop stop-color="white"/>
<stop offset="1" stop-color="#D4F2FF"/>
</linearGradient>
</defs>
</svg>
