<svg width="512" height="512" viewBox="0 0 512 512" fill="none" xmlns="http://www.w3.org/2000/svg">
<rect width="512" height="512" rx="76" fill="white"/>
<rect width="512" height="512" rx="76" fill="url(#paint0_linear_36_2059)"/>
<path fill-rule="evenodd" clip-rule="evenodd" d="M283.245 101.845C326.449 108.421 368.54 132.962 395.427 167.32C421.757 201.03 434.366 239.648 432.883 281.971C432.327 298.085 431.029 306.976 427.135 321.608C418.976 352.169 399.321 383.656 376.143 403.197C366.594 411.347 363.534 412.828 357.044 412.828C346.011 412.828 339.522 405.975 337.204 391.806C335.628 381.619 333.124 376.618 327.284 371.339C319.681 364.579 309.575 362.634 299.563 366.153C296.781 367.079 288.344 370.969 280.742 374.673C267.299 381.249 266.65 381.434 258.676 381.804C248.014 382.36 244.213 381.249 229.194 373.655C210.188 364.116 202.586 362.541 193.036 366.153C182.374 370.228 176.07 378.933 174.679 391.806C173.659 400.604 172.176 403.845 166.984 408.291C160.123 414.125 150.759 414.588 142.971 409.402C137.872 406.068 122.76 391.436 116.734 384.027C91.887 353.651 79 316.237 79 274.84C79 235.203 93.5558 195.288 119.052 164.82C149.554 128.239 193.036 105.457 241.247 100.549C251.908 99.4375 271.563 100.086 283.245 101.845ZM144.269 250.484C148.534 233.721 160.123 220.108 173.845 215.663C176.255 214.829 180.705 214.459 185.805 214.644C192.758 214.922 194.612 215.385 199.897 217.978C225.022 230.758 233.922 267.987 218.347 294.936C212.135 305.494 201.009 314.014 190.255 316.329C171.712 320.311 150.481 303.549 144.362 280.119C142.23 272.247 142.23 258.356 144.269 250.484ZM245.882 183.62C245.882 180.008 249.22 175.655 252.557 174.729C259.325 172.97 265.352 177.322 265.352 183.99C265.352 186.954 264.703 188.343 262.199 190.843C258.676 194.362 255.71 194.825 251.445 192.603C248.385 191.029 245.882 186.954 245.882 183.62ZM247.458 217.144C244.399 212.699 246.531 205.939 251.723 203.716C253.392 202.975 255.246 202.605 255.895 202.79C256.637 203.068 257.749 203.253 258.584 203.253C259.325 203.253 261.18 204.457 262.663 205.939C264.795 208.069 265.352 209.458 265.352 212.514C265.352 217.978 261.551 221.775 255.895 221.775C251.63 221.682 249.961 220.849 247.458 217.144ZM291.775 239C297.337 227.702 304.105 221.219 315.138 216.589C319.774 214.644 321.628 214.366 328.489 214.644C335.349 214.922 337.482 215.385 342.766 217.978C358.806 225.942 369.189 243.909 369.468 264.375C369.56 280.212 363.998 294.659 353.799 304.846C341.376 317.348 326.82 320.126 312.171 312.717C305.96 309.661 296.132 299.474 292.424 292.436C283.894 276.229 283.616 255.485 291.775 239Z" fill="white"/>
<path d="M199.81 265.623C199.81 274.925 192.262 282.466 182.952 282.466C173.642 282.466 166.095 274.925 166.095 265.623C166.095 256.321 173.642 248.78 182.952 248.78C192.262 248.78 199.81 256.321 199.81 265.623Z" fill="white"/>
<path d="M345.905 265.623C345.905 274.925 338.358 282.466 329.048 282.466C319.738 282.466 312.19 274.925 312.19 265.623C312.19 256.321 319.738 248.78 329.048 248.78C338.358 248.78 345.905 256.321 345.905 265.623Z" fill="white"/>
<defs>
<linearGradient id="paint0_linear_36_2059" x1="256" y1="512" x2="256" y2="0" gradientUnits="userSpaceOnUse">
<stop stop-color="#27A27A"/>
<stop offset="1" stop-color="#0C674A"/>
</linearGradient>
</defs>
</svg>
