<svg width="144" height="144" viewBox="0 0 144 144" fill="none" xmlns="http://www.w3.org/2000/svg">
<path d="M67.5269 19.746C64.7489 19.746 62.3929 17.614 62.1679 14.796C61.9289 11.834 64.1369 9.23702 67.0989 8.99802C68.8079 8.85802 70.5469 8.79004 72.2699 8.79004C75.2429 8.79004 77.6528 11.2 77.6528 14.173C77.6528 17.146 75.2429 19.556 72.2699 19.556C70.8339 19.556 69.3888 19.614 67.9658 19.73C67.8188 19.741 67.6719 19.746 67.5269 19.746Z" fill="white"/>
<path d="M28.0969 39.868C26.8559 39.868 25.6099 39.442 24.5929 38.572C22.3369 36.635 22.0769 33.236 24.0139 30.981C31.0279 22.806 40.0399 16.511 50.0839 12.773C52.8549 11.735 55.9669 13.151 57.0049 15.94C58.0429 18.726 56.6239 21.8251 53.8379 22.8641C45.5029 25.9661 38.0139 31.197 32.1839 37.991C31.1189 39.231 29.6129 39.868 28.0969 39.868Z" fill="white"/>
<path d="M143.676 72.354C143.676 111.792 111.708 143.764 72.2699 143.764C32.8309 143.764 0.856934 111.793 0.856934 72.354C0.856934 32.915 32.8309 0.94104 72.2699 0.94104C111.708 0.94104 143.676 32.915 143.676 72.354Z" fill="black"/>
<path d="M101.619 72.354C101.619 88.567 88.4819 101.707 72.2689 101.707C56.0559 101.707 42.9128 88.567 42.9128 72.354C42.9128 56.141 56.0569 42.998 72.2689 42.998C88.4809 42.998 101.619 56.141 101.619 72.354Z" fill="white"/>
<path d="M69.4039 19.746C66.6249 19.746 64.2698 17.614 64.0438 14.796C63.8048 11.834 66.0128 9.23702 68.9758 8.99802C70.6838 8.85802 72.4239 8.79004 74.1459 8.79004C77.1199 8.79004 79.5299 11.2 79.5299 14.173C79.5299 17.146 77.1199 19.556 74.1459 19.556C72.7109 19.556 71.2649 19.614 69.8429 19.73C69.6949 19.741 69.5489 19.746 69.4039 19.746Z" fill="white"/>
<path d="M29.973 39.868C28.733 39.868 27.487 39.442 26.469 38.572C24.214 36.635 23.954 33.236 25.891 30.981C32.905 22.806 41.917 16.511 51.961 12.773C54.732 11.735 57.8439 13.151 58.8819 15.94C59.9199 18.726 58.5009 21.8251 55.7149 22.8641C47.3789 25.9661 39.891 31.197 34.061 37.991C32.996 39.231 31.49 39.868 29.973 39.868Z" fill="white"/>
<path d="M67.1799 70.217C66.2629 69.728 65.5929 69.184 65.1719 68.579C64.5969 67.756 64.3099 66.81 64.3099 65.738C64.3099 63.974 65.1378 62.534 66.7938 61.414C68.0838 60.552 69.7959 60.121 71.9219 60.121C74.7349 60.121 76.8169 60.657 78.1599 61.73C79.5059 62.802 80.1788 64.153 80.1788 65.78C80.1788 66.729 79.9099 67.612 79.3739 68.438C78.9719 69.05 78.3409 69.645 77.4779 70.217C78.6169 70.764 79.4648 71.487 80.0278 72.385C80.5858 73.284 80.8668 74.281 80.8668 75.371C80.8668 76.425 80.6249 77.408 80.1409 78.323C79.6579 79.238 79.0659 79.945 78.3619 80.442C77.6569 80.939 76.7789 81.307 75.7329 81.541C74.6839 81.775 73.5669 81.894 72.3789 81.894C70.1499 81.894 68.4438 81.631 67.2668 81.102C66.0898 80.577 65.1939 79.801 64.5829 78.776C63.9679 77.754 63.6628 76.608 63.6628 75.346C63.6628 74.111 63.9489 73.064 64.5249 72.207C65.0989 71.35 65.9839 70.688 67.1799 70.217ZM69.4929 75.143C69.4929 76.071 69.7768 76.831 70.3398 77.419C70.9038 78.008 71.5519 78.302 72.2789 78.302C72.9779 78.302 73.6039 78.002 74.1619 77.406C74.7159 76.807 74.9918 76.047 74.9918 75.13C74.9918 74.2 74.7138 73.44 74.1528 72.846C73.5928 72.252 72.9439 71.955 72.2059 71.955C71.4799 71.955 70.8449 72.242 70.3029 72.817C69.7639 73.392 69.4929 74.167 69.4929 75.143ZM69.8088 66.082C69.8088 66.81 70.0359 67.396 70.4929 67.841C70.9449 68.285 71.5528 68.508 72.3088 68.508C72.9788 68.508 73.5289 68.287 73.9589 67.848C74.3909 67.406 74.6049 66.836 74.6049 66.14C74.6049 65.412 74.3819 64.82 73.9299 64.366C73.4799 63.911 72.9048 63.682 72.2048 63.682C71.4978 63.682 70.9218 63.906 70.4758 64.35C70.0318 64.797 69.8088 65.373 69.8088 66.082Z" fill="black"/>
</svg>
