<svg width="144" height="143" viewBox="0 0 144 143" fill="none" xmlns="http://www.w3.org/2000/svg">
<path d="M143.797 71.562C143.797 111.001 111.828 142.972 72.3901 142.972C32.9521 142.972 0.977051 111.001 0.977051 71.562C0.977051 32.124 32.9521 0.150024 72.3901 0.150024C111.828 0.150024 143.797 32.123 143.797 71.562Z" fill="white"/>
<path d="M0.977051 71.562C0.977051 82.944 3.65408 93.695 8.39008 103.242H136.384C141.121 93.695 143.797 82.944 143.797 71.562C143.797 60.181 141.121 49.427 136.384 39.877H8.39008C3.65308 49.427 0.977051 60.181 0.977051 71.562Z" fill="#B5191B"/>
<path d="M122.6 104.981C121.907 104.981 121.202 104.802 120.561 104.423C118.636 103.295 117.996 100.822 119.121 98.898C120.13 97.182 121.045 95.397 121.85 93.599C122.759 91.565 125.146 90.647 127.18 91.554C129.215 92.463 130.129 94.85 129.225 96.885C128.3 98.956 127.248 101.009 126.087 102.983C125.334 104.267 123.988 104.981 122.6 104.981Z" fill="black"/>
<path d="M72.3791 133.779C70.1501 133.779 68.342 131.97 68.342 129.742C68.342 127.511 70.1511 125.705 72.3791 125.705C86.8731 125.705 100.494 120.048 110.73 109.775C112.302 108.198 114.862 108.193 116.439 109.765C118.016 111.341 118.022 113.897 116.45 115.476C104.684 127.279 89.0331 133.779 72.3791 133.779Z" fill="black"/>
<path d="M72.3872 100.915C88.5984 100.915 101.74 87.7732 101.74 71.562C101.74 55.3508 88.5984 42.209 72.3872 42.209C56.176 42.209 43.0342 55.3508 43.0342 71.562C43.0342 87.7732 56.176 100.915 72.3872 100.915Z" fill="white"/>
<path d="M68.6089 59.328V80.74H62.6899V66.71C61.7329 67.438 60.8069 68.026 59.9139 68.476C59.0159 68.928 57.8949 69.36 56.5449 69.77V64.972C58.5369 64.333 60.0829 63.561 61.1819 62.662C62.2859 61.763 63.1479 60.65 63.7679 59.328H68.6089Z" fill="black"/>
<path d="M88.2241 59.328V80.74H82.3101V66.71C81.3531 67.438 80.4221 68.026 79.5291 68.476C78.6351 68.928 77.51 69.36 76.165 69.77V64.972C78.152 64.333 79.6981 63.561 80.8021 62.662C81.9011 61.763 82.763 60.65 83.389 59.328H88.2241Z" fill="black"/>
</svg>
