<svg width="144" height="144" viewBox="0 0 144 144" fill="none" xmlns="http://www.w3.org/2000/svg">
<path d="M72.3871 143.375C111.826 143.375 143.797 111.404 143.797 71.9651C143.797 32.5264 111.826 0.555054 72.3871 0.555054C32.9484 0.555054 0.977051 32.5264 0.977051 71.9651C0.977051 111.404 32.9484 143.375 72.3871 143.375Z" fill="white"/>
<path d="M0.977051 71.9651C0.977051 83.3471 3.65408 94.1 8.39008 103.647H136.384C141.121 94.1 143.797 83.3471 143.797 71.9651C143.797 60.5831 141.121 49.8301 136.384 40.2831H8.39008C3.65308 49.8301 0.977051 60.5831 0.977051 71.9651Z" fill="#4E150D"/>
<path d="M122.558 105.384C121.865 105.384 121.16 105.205 120.519 104.829C118.594 103.699 117.954 101.228 119.079 99.3051C120.088 97.5851 121.003 95.8031 121.808 94.0051C122.717 91.9681 125.104 91.0511 127.138 91.9601C129.172 92.8671 130.087 95.2541 129.183 97.2911C128.258 99.3621 127.206 101.412 126.044 103.389C125.292 104.672 123.945 105.384 122.558 105.384Z" fill="black"/>
<path d="M72.337 134.183C70.108 134.183 68.3 132.377 68.3 130.145C68.3 127.914 70.108 126.108 72.337 126.108C86.831 126.108 100.452 120.452 110.688 110.182C112.26 108.602 114.82 108.599 116.397 110.171C117.974 111.745 117.979 114.303 116.408 115.88C104.642 127.682 88.991 134.183 72.337 134.183Z" fill="black"/>
<path d="M101.75 71.9651C101.75 88.1781 88.613 101.318 72.4 101.318C56.187 101.318 43.0439 88.1781 43.0439 71.9651C43.0439 55.7521 56.188 42.6111 72.4 42.6111C88.612 42.6111 101.75 55.7521 101.75 71.9651Z" fill="white"/>
<path d="M66.6121 59.7341V81.1461H60.6921V67.1151C59.7351 67.8411 58.8101 68.4291 57.9171 68.8821C57.0181 69.3311 55.8981 69.762 54.5471 70.175V65.3751C56.5391 64.7361 58.0851 63.9661 59.1841 63.0641C60.2881 62.1651 61.1501 61.0531 61.7711 59.7341H66.6121Z" fill="black"/>
<path d="M75.3441 60.092H89.2281V64.7601H79.824L79.319 67.9191C79.971 67.6111 80.6181 67.3831 81.2541 67.2311C81.8901 67.0791 82.5161 67.0001 83.1421 67.0001C85.2451 67.0001 86.9581 67.6371 88.2671 68.9091C89.5811 70.1831 90.2341 71.79 90.2341 73.722C90.2341 75.08 89.8971 76.3901 89.2241 77.6411C88.5461 78.8981 87.5891 79.854 86.3481 80.514C85.1131 81.174 83.5261 81.5051 81.5911 81.5051C80.2021 81.5051 79.0151 81.373 78.0211 81.11C77.0331 80.847 76.187 80.4531 75.493 79.9321C74.799 79.4111 74.2361 78.8181 73.8051 78.1581C73.3741 77.4991 73.0161 76.6741 72.7271 75.6901L78.647 75.0441C78.789 75.9901 79.1261 76.71 79.6511 77.204C80.1761 77.698 80.8021 77.9431 81.5331 77.9431C82.3481 77.9431 83.021 77.6351 83.553 77.0171C84.083 76.4001 84.3461 75.4801 84.3461 74.2521C84.3461 72.9981 84.0781 72.0781 83.5421 71.4941C83.0061 70.9101 82.296 70.6191 81.402 70.6191C80.839 70.6191 80.2931 70.758 79.7671 71.037C79.3721 71.236 78.9411 71.6001 78.4731 72.1251L73.4901 71.41L75.3441 60.092Z" fill="black"/>
</svg>
