<svg width="144" height="144" viewBox="0 0 144 144" fill="none" xmlns="http://www.w3.org/2000/svg">
<path d="M143.144 72.354C143.144 111.792 111.175 143.764 71.737 143.764C32.298 143.764 0.323975 111.793 0.323975 72.354C0.323975 32.915 32.298 0.94104 71.737 0.94104C111.175 0.94104 143.144 32.915 143.144 72.354Z" fill="#EB7914"/>
<path d="M66.994 19.746C64.213 19.746 61.858 17.614 61.632 14.796C61.396 11.834 63.604 9.23702 66.563 8.99802C68.272 8.85802 70.012 8.79004 71.736 8.79004C74.706 8.79004 77.119 11.2 77.119 14.173C77.119 17.146 74.706 19.556 71.736 19.556C70.3 19.556 68.855 19.614 67.43 19.73C67.283 19.741 67.136 19.746 66.994 19.746Z" fill="white"/>
<path d="M27.561 39.868C26.32 39.868 25.074 39.442 24.06 38.572C21.805 36.635 21.542 33.236 23.482 30.981C30.495 22.806 39.505 16.511 49.552 12.773C52.323 11.735 55.435 13.151 56.47 15.94C57.511 18.726 56.091 21.8251 53.305 22.8641C44.968 25.9661 37.481 31.197 31.651 37.991C30.583 39.231 29.08 39.868 27.561 39.868Z" fill="white"/>
<path d="M101.086 72.354C101.086 88.567 87.9489 101.707 71.7359 101.707C55.5229 101.707 42.3799 88.567 42.3799 72.354C42.3799 56.141 55.5229 42.998 71.7359 42.998C87.9489 42.998 101.086 56.141 101.086 72.354Z" fill="white"/>
<path d="M65.596 60.48H79.48V65.148H70.075L69.57 68.308C70.222 68 70.868 67.772 71.505 67.617C72.141 67.465 72.767 67.388 73.392 67.388C75.495 67.388 77.209 68.024 78.518 69.296C79.832 70.571 80.484 72.174 80.484 74.109C80.484 75.468 80.148 76.774 79.475 78.028C78.797 79.282 77.84 80.241 76.6 80.901C75.365 81.561 73.777 81.892 71.842 81.892C70.454 81.892 69.266 81.76 68.273 81.497C67.284 81.231 66.438 80.84 65.744 80.319C65.05 79.796 64.488 79.205 64.056 78.545C63.625 77.885 63.267 77.06 62.978 76.074L68.897 75.428C69.039 76.377 69.376 77.097 69.901 77.592C70.427 78.083 71.052 78.33 71.783 78.33C72.597 78.33 73.271 78.02 73.802 77.405C74.333 76.787 74.596 75.865 74.596 74.64C74.596 73.386 74.328 72.466 73.791 71.883C73.255 71.3 72.545 71.008 71.652 71.008C71.089 71.008 70.543 71.145 70.017 71.424C69.623 71.627 69.192 71.989 68.724 72.515L63.741 71.797L65.596 60.48Z" fill="black"/>
</svg>
