<svg width="144" height="144" viewBox="0 0 144 144" fill="none" xmlns="http://www.w3.org/2000/svg">
<path d="M72.2678 143.444C111.707 143.444 143.679 111.472 143.679 72.033C143.679 32.5938 111.707 0.622009 72.2678 0.622009C32.8286 0.622009 0.856934 32.5938 0.856934 72.033C0.856934 111.472 32.8286 143.444 72.2678 143.444Z" fill="#452778"/>
<path d="M67.5291 19.428C64.7511 19.428 62.3961 17.293 62.1701 14.478C61.9311 11.513 64.1391 8.918 67.1021 8.677C68.8101 8.54 70.547 8.46899 72.27 8.46899C75.243 8.46899 77.653 10.879 77.653 13.852C77.653 16.825 75.243 19.235 72.27 19.235C70.836 19.235 69.391 19.293 67.969 19.408C67.821 19.422 67.6741 19.428 67.5291 19.428Z" fill="white"/>
<path d="M28.0969 39.549C26.8559 39.549 25.6099 39.123 24.5929 38.251C22.3369 36.314 22.0769 32.915 24.0139 30.66C31.0249 22.488 40.0399 16.193 50.0809 12.452C52.8649 11.414 55.9669 12.833 57.0049 15.619C58.0429 18.406 56.6269 21.504 53.8399 22.543C45.4999 25.647 38.0119 30.878 32.1839 37.67C31.1189 38.91 29.6129 39.549 28.0969 39.549Z" fill="white"/>
<path d="M72.2678 101.387C88.4796 101.387 101.622 88.2448 101.622 72.033C101.622 55.8213 88.4796 42.679 72.2678 42.679C56.0561 42.679 42.9138 55.8213 42.9138 72.033C42.9138 88.2448 56.0561 101.387 72.2678 101.387Z" fill="white"/>
<path d="M73.7258 77.279H63.0698V72.469L73.7258 59.802H78.8248V72.74H81.4679V77.28H78.8248V81.215H73.7258V77.279ZM73.7258 72.74V66.116L68.0948 72.74H73.7258Z" fill="black"/>
</svg>
