<svg width="144" height="144" viewBox="0 0 144 144" fill="none" xmlns="http://www.w3.org/2000/svg">
<path d="M71.898 143.375C111.337 143.375 143.308 111.404 143.308 71.9651C143.308 32.5264 111.337 0.555054 71.898 0.555054C32.4594 0.555054 0.488037 32.5264 0.488037 71.9651C0.488037 111.404 32.4594 143.375 71.898 143.375Z" fill="white"/>
<path d="M0.488037 71.9651C0.488037 83.3471 3.16403 94.1001 7.90103 103.65H135.896C140.632 94.1001 143.308 83.3471 143.308 71.9651C143.308 60.5831 140.632 49.8321 135.896 40.2831H7.90103C3.16403 49.8321 0.488037 60.5831 0.488037 71.9651Z" fill="#33A936"/>
<path d="M122.083 105.384C121.389 105.384 120.685 105.205 120.043 104.832C118.119 103.702 117.475 101.228 118.603 99.307C119.61 97.588 120.527 95.806 121.329 94.008C122.238 91.968 124.625 91.0531 126.66 91.9631C128.697 92.8671 129.612 95.2541 128.705 97.2931C127.783 99.3641 126.728 101.415 125.569 103.392C124.816 104.672 123.468 105.384 122.083 105.384Z" fill="black"/>
<path d="M71.858 134.183C69.629 134.183 67.821 132.377 67.821 130.145C67.821 127.916 69.63 126.108 71.858 126.108C86.352 126.108 99.973 120.452 110.209 110.182C111.784 108.602 114.344 108.599 115.918 110.173C117.498 111.745 117.503 114.303 115.928 115.883C104.166 127.685 88.516 134.183 71.858 134.183Z" fill="black"/>
<path d="M71.8979 101.318C88.1092 101.318 101.251 88.1763 101.251 71.9651C101.251 55.7539 88.1092 42.6121 71.8979 42.6121C55.6867 42.6121 42.5449 55.7539 42.5449 71.9651C42.5449 88.1763 55.6867 101.318 71.8979 101.318Z" fill="white"/>
<path d="M65.855 59.7341V81.1461H59.936V67.1171C58.979 67.8431 58.054 68.431 57.16 68.884C56.264 69.331 55.141 69.762 53.79 70.175V65.3781C55.782 64.7361 57.3281 63.9661 58.4291 63.0651C59.5311 62.1661 60.3931 61.057 61.0131 59.735L65.855 59.7341Z" fill="black"/>
<path d="M82.2681 77.2111H71.6121V72.4011L82.2681 59.7341H87.368V72.6741H90.0101V77.2101H87.368V81.1461H82.2681V77.2111ZM82.2681 72.675V66.048L76.6381 72.675H82.2681Z" fill="black"/>
</svg>
