<svg width="144" height="143" viewBox="0 0 144 143" fill="none" xmlns="http://www.w3.org/2000/svg">
<path d="M143.144 71.562C143.144 111.001 111.175 142.972 71.737 142.972C32.298 142.972 0.323975 111.001 0.323975 71.562C0.323975 32.124 32.298 0.150024 71.737 0.150024C111.175 0.149024 143.144 32.123 143.144 71.562Z" fill="white"/>
<path d="M0.323975 71.562C0.323975 82.873 2.96597 93.566 7.64697 103.071H135.82C140.501 93.566 143.143 82.873 143.143 71.562C143.143 60.11 140.433 49.298 135.643 39.707H7.82597C3.03397 49.298 0.323975 60.109 0.323975 71.562Z" fill="#D8BF0F"/>
<path d="M101.086 71.562C101.086 87.775 87.9489 100.916 71.7359 100.916C55.5229 100.916 42.3799 87.775 42.3799 71.562C42.3799 55.349 55.5229 42.207 71.7359 42.207C87.9489 42.207 101.086 55.349 101.086 71.562Z" fill="white"/>
<path d="M124.728 104.981C124.034 104.981 123.33 104.802 122.688 104.426C120.764 103.295 120.123 100.822 121.248 98.901C122.257 97.182 123.172 95.4 123.977 93.602C124.886 91.565 127.273 90.647 129.308 91.557C131.343 92.463 132.257 94.85 131.353 96.887C130.428 98.958 129.376 101.009 128.215 102.986C127.461 104.267 126.116 104.981 124.728 104.981Z" fill="black"/>
<path d="M74.507 133.779C72.278 133.779 70.469 131.97 70.469 129.742C70.469 127.511 72.278 125.705 74.507 125.705C89.001 125.705 102.622 120.048 112.858 109.775C114.43 108.198 116.99 108.193 118.567 109.767C120.144 111.341 120.15 113.897 118.578 115.476C106.812 127.279 91.161 133.779 74.507 133.779Z" fill="black"/>
<path d="M63.509 76.018L69.323 75.285C69.475 76.099 69.733 76.673 70.101 77.009C70.464 77.343 70.906 77.511 71.436 77.511C72.372 77.511 73.103 77.038 73.633 76.089C74.012 75.39 74.301 73.913 74.49 71.652C73.796 72.37 73.076 72.895 72.34 73.231C71.599 73.565 70.747 73.734 69.78 73.734C67.898 73.734 66.305 73.063 65.007 71.723C63.708 70.382 63.062 68.689 63.062 66.639C63.062 65.243 63.393 63.968 64.056 62.82C64.713 61.672 65.622 60.801 66.785 60.213C67.941 59.624 69.398 59.329 71.148 59.329C73.256 59.329 74.943 59.692 76.216 60.415C77.488 61.138 78.508 62.287 79.27 63.861C80.032 65.435 80.411 67.517 80.411 70.101C80.411 73.902 79.612 76.685 78.014 78.452C76.416 80.219 74.197 81.101 71.364 81.101C69.687 81.101 68.367 80.907 67.4 80.52C66.433 80.131 65.629 79.564 64.987 78.817C64.345 78.07 63.851 77.137 63.509 76.018ZM74.281 66.625C74.281 65.484 73.992 64.594 73.419 63.947C72.841 63.301 72.142 62.976 71.321 62.976C70.543 62.976 69.902 63.268 69.386 63.852C68.876 64.438 68.618 65.313 68.618 66.48C68.618 67.658 68.886 68.56 69.417 69.18C69.948 69.803 70.61 70.113 71.404 70.113C72.23 70.113 72.913 69.813 73.46 69.209C74.007 68.607 74.281 67.745 74.281 66.625Z" fill="black"/>
</svg>
