<svg width="144" height="144" viewBox="0 0 144 144" fill="none" xmlns="http://www.w3.org/2000/svg">
<path d="M71.732 143.444C111.171 143.444 143.143 111.472 143.143 72.033C143.143 32.5938 111.171 0.622009 71.732 0.622009C32.2928 0.622009 0.321045 32.5938 0.321045 72.033C0.321045 111.472 32.2928 143.444 71.732 143.444Z" fill="#D8BF0F"/>
<path d="M66.992 19.425C64.216 19.425 61.861 17.293 61.632 14.478C61.393 11.513 63.601 8.916 66.566 8.677C68.274 8.538 70.012 8.46899 71.731 8.46899C74.704 8.46899 77.114 10.879 77.114 13.852C77.114 16.825 74.703 19.235 71.731 19.235C70.301 19.235 68.853 19.293 67.433 19.408C67.286 19.419 67.139 19.425 66.992 19.425Z" fill="white"/>
<path d="M27.5609 39.549C26.3199 39.549 25.0719 39.121 24.0569 38.251C21.8019 36.314 21.5409 32.915 23.4779 30.66C30.4909 22.488 39.5039 16.193 49.5449 12.455C52.3339 11.414 55.4299 12.833 56.4659 15.62C57.5049 18.407 56.0879 21.505 53.3009 22.544C44.9629 25.648 37.4769 30.879 31.6469 37.674C30.5829 38.913 29.0779 39.549 27.5609 39.549Z" fill="white"/>
<path d="M71.7319 101.387C87.9437 101.387 101.086 88.2448 101.086 72.033C101.086 55.8213 87.9437 42.679 71.7319 42.679C55.5202 42.679 42.3779 55.8213 42.3779 72.033C42.3779 88.2448 55.5202 101.387 71.7319 101.387Z" fill="white"/>
<path d="M75.061 61.0002V82.4122H69.144V68.3842C68.187 69.1122 67.259 69.7012 66.366 70.1502C65.47 70.6002 64.347 71.0312 62.999 71.4412V66.6462C64.989 66.0052 66.534 65.2322 67.636 64.3332C68.737 63.4342 69.599 62.3252 70.222 61.0002H75.061Z" fill="black"/>
</svg>
