<svg width="144" height="144" viewBox="0 0 144 144" fill="none" xmlns="http://www.w3.org/2000/svg">
<path d="M143.797 72.354C143.797 111.792 111.828 143.764 72.3901 143.764C32.9521 143.764 0.977051 111.793 0.977051 72.354C0.977051 32.915 32.9521 0.94104 72.3901 0.94104C111.828 0.94104 143.797 32.915 143.797 72.354Z" fill="#4E150D"/>
<path d="M67.6471 19.746C64.8661 19.746 62.5111 17.614 62.2851 14.796C62.0491 11.834 64.2571 9.23702 67.2171 8.99802C68.9251 8.85802 70.6652 8.79004 72.3902 8.79004C75.3602 8.79004 77.7731 11.2 77.7731 14.173C77.7731 17.146 75.3602 19.556 72.3902 19.556C70.9542 19.556 69.5091 19.614 68.0841 19.73C67.9371 19.741 67.7891 19.746 67.6471 19.746Z" fill="white"/>
<path d="M28.214 39.868C26.974 39.868 25.728 39.442 24.713 38.572C22.458 36.635 22.194 33.236 24.135 30.981C31.148 22.806 40.158 16.511 50.204 12.773C52.975 11.735 56.087 13.151 57.123 15.94C58.164 18.726 56.744 21.8251 53.958 22.8641C45.62 25.9661 38.134 31.197 32.304 37.991C31.237 39.231 29.733 39.868 28.214 39.868Z" fill="white"/>
<path d="M101.74 72.354C101.74 88.567 88.6022 101.707 72.3892 101.707C56.1762 101.707 43.0342 88.567 43.0342 72.354C43.0342 56.141 56.1772 42.998 72.3892 42.998C88.6012 42.998 101.74 56.141 101.74 72.354Z" fill="white"/>
<path d="M63.8472 60.48H80.9222V64.428C79.4402 65.769 78.1982 67.22 77.2052 68.781C75.9962 70.676 75.0442 72.787 74.3452 75.113C73.7932 76.924 73.4202 79.064 73.2262 81.532H67.3962C67.8582 78.096 68.5792 75.213 69.5672 72.887C70.5502 70.56 72.1122 68.071 74.2462 65.419H63.8482V60.48H63.8472Z" fill="black"/>
</svg>
