<svg width="144" height="144" viewBox="0 0 144 144" fill="none" xmlns="http://www.w3.org/2000/svg">
<path d="M143.308 72.354C143.308 111.792 111.34 143.764 71.901 143.764C32.462 143.764 0.488037 111.793 0.488037 72.354C0.488037 32.915 32.462 0.94104 71.901 0.94104C111.339 0.94104 143.308 32.915 143.308 72.354Z" fill="#33A936"/>
<path d="M67.1591 19.746C64.3831 19.746 62.0281 17.614 61.8021 14.796C61.5601 11.834 63.768 9.23702 66.733 8.99802C68.441 8.85802 70.1821 8.79004 71.9011 8.79004C74.8761 8.79004 77.2841 11.2 77.2841 14.173C77.2841 17.146 74.8761 19.556 71.9011 19.556C70.4651 19.556 69.0201 19.614 67.6011 19.73C67.4531 19.741 67.3061 19.746 67.1591 19.746Z" fill="white"/>
<path d="M27.73 39.868C26.489 39.868 25.244 39.442 24.224 38.572C21.969 36.635 21.711 33.236 23.646 30.981C30.659 22.806 39.675 16.511 49.716 12.773C52.487 11.735 55.599 13.151 56.639 15.94C57.675 18.726 56.255 21.8251 53.469 22.8641C45.136 25.9661 37.645 31.197 31.815 37.991C30.753 39.231 29.245 39.868 27.73 39.868Z" fill="white"/>
<path d="M101.251 72.354C101.251 88.567 88.1139 101.707 71.9009 101.707C55.6879 101.707 42.5449 88.567 42.5449 72.354C42.5449 56.141 55.6879 42.998 71.9009 42.998C88.1139 42.998 101.251 56.141 101.251 72.354Z" fill="white"/>
<path d="M80.1281 65.22L74.3141 65.937C74.1621 65.125 73.9041 64.549 73.5461 64.213C73.1841 63.879 72.7421 63.711 72.2161 63.711C71.2701 63.711 70.5281 64.189 70.0031 65.149C69.6191 65.838 69.3401 67.313 69.1561 69.57C69.8551 68.863 70.5711 68.337 71.3121 67.998C72.0481 67.659 72.8991 67.488 73.8671 67.488C75.7441 67.488 77.3311 68.158 78.6301 69.499C79.9231 70.84 80.5751 72.538 80.5751 74.596C80.5751 75.986 80.244 77.253 79.592 78.402C78.935 79.55 78.026 80.421 76.863 81.009C75.696 81.598 74.2401 81.892 72.4891 81.892C70.3811 81.892 68.6941 81.532 67.4161 80.814C66.1441 80.097 65.1291 78.951 64.3671 77.376C63.6051 75.802 63.2261 73.714 63.2261 71.12C63.2261 67.319 64.025 64.536 65.623 62.769C67.221 61.003 69.4401 60.12 72.2731 60.12C73.9451 60.12 75.2701 60.314 76.2421 60.703C77.2151 61.089 78.019 61.657 78.66 62.404C79.303 63.151 79.7921 64.09 80.1281 65.22ZM69.3561 74.596C69.3561 75.737 69.6451 76.63 70.2181 77.274C70.7911 77.92 71.496 78.244 72.332 78.244C73.094 78.244 73.735 77.952 74.256 77.369C74.771 76.786 75.0291 75.913 75.0291 74.756C75.0291 73.568 74.7611 72.664 74.2241 72.041C73.6881 71.418 73.0261 71.108 72.2321 71.108C71.4171 71.108 70.7331 71.41 70.1821 72.012C69.6351 72.617 69.3561 73.476 69.3561 74.596Z" fill="black"/>
</svg>
