<svg width="144" height="143" viewBox="0 0 144 143" fill="none" xmlns="http://www.w3.org/2000/svg">
<path d="M143.308 71.562C143.308 111.001 111.34 142.972 71.901 142.972C32.462 142.972 0.488037 111.001 0.488037 71.562C0.488037 32.124 32.462 0.150024 71.901 0.150024C111.339 0.149024 143.308 32.123 143.308 71.562Z" fill="white"/>
<path d="M122.125 104.98C121.431 104.98 120.727 104.801 120.085 104.425C118.161 103.294 117.517 100.821 118.645 98.9003C119.652 97.1813 120.569 95.3993 121.371 93.6013C122.278 91.5643 124.667 90.6463 126.702 91.5563C128.739 92.4623 129.654 94.8493 128.747 96.8863C127.825 98.9573 126.77 101.008 125.611 102.985C124.858 104.266 123.51 104.98 122.125 104.98Z" fill="white"/>
<path d="M71.9011 133.779C69.6721 133.779 67.863 131.97 67.863 129.742C67.863 127.511 69.6721 125.705 71.9011 125.705C86.3951 125.705 100.016 120.048 110.251 109.775C111.826 108.198 114.386 108.193 115.96 109.767C117.54 111.341 117.545 113.897 115.97 115.476C104.208 127.279 88.5581 133.779 71.9011 133.779Z" fill="white"/>
<path d="M0.488037 71.562C0.488037 82.873 3.13003 93.566 7.81104 103.071H135.984C140.665 93.566 143.307 82.873 143.307 71.562C143.307 60.11 140.597 49.298 135.808 39.707H7.99002C3.19802 49.298 0.488037 60.109 0.488037 71.562Z" fill="#213360"/>
<path d="M122.125 104.981C121.431 104.981 120.727 104.802 120.085 104.426C118.161 103.295 117.517 100.822 118.645 98.901C119.652 97.182 120.569 95.4 121.371 93.602C122.278 91.565 124.667 90.647 126.702 91.557C128.739 92.463 129.654 94.85 128.747 96.887C127.825 98.958 126.77 101.009 125.611 102.986C124.858 104.267 123.51 104.981 122.125 104.981Z" fill="black"/>
<path d="M71.9011 133.78C69.6721 133.78 67.863 131.971 67.863 129.743C67.863 127.512 69.6721 125.706 71.9011 125.706C86.3951 125.706 100.016 120.049 110.251 109.776C111.826 108.199 114.386 108.194 115.96 109.768C117.54 111.342 117.545 113.898 115.97 115.477C104.208 127.28 88.5581 133.78 71.9011 133.78Z" fill="black"/>
<path d="M101.251 71.562C101.251 87.775 88.1139 100.916 71.9009 100.916C55.6879 100.916 42.5449 87.775 42.5449 71.562C42.5449 55.349 55.6879 42.207 71.9009 42.207C88.1139 42.207 101.251 55.349 101.251 71.562Z" fill="white"/>
<path d="M66.149 59.328V80.74H60.23V66.712C59.273 67.438 58.348 68.026 57.454 68.479C56.558 68.928 55.435 69.36 54.084 69.77V64.972C56.076 64.333 57.622 63.561 58.723 62.662C59.825 61.763 60.687 60.65 61.307 59.328H66.149Z" fill="black"/>
<path d="M72.511 70.129C72.511 66.126 73.231 63.326 74.672 61.729C76.112 60.13 78.307 59.329 81.256 59.329C82.673 59.329 83.835 59.506 84.744 59.855C85.654 60.205 86.397 60.659 86.973 61.219C87.546 61.779 87.998 62.367 88.329 62.986C88.66 63.603 88.923 64.324 89.125 65.146C89.517 66.715 89.714 68.353 89.714 70.059C89.714 73.878 89.068 76.672 87.777 78.444C86.484 80.215 84.257 81.101 81.098 81.101C79.326 81.101 77.893 80.818 76.806 80.252C75.712 79.689 74.819 78.861 74.119 77.768C73.609 76.993 73.215 75.934 72.933 74.587C72.652 73.244 72.511 71.756 72.511 70.129ZM78.312 70.143C78.312 72.824 78.551 74.656 79.024 75.636C79.497 76.616 80.183 77.109 81.085 77.109C81.679 77.109 82.191 76.901 82.628 76.483C83.062 76.068 83.382 75.411 83.59 74.509C83.795 73.61 83.898 72.206 83.898 70.3C83.898 67.506 83.661 65.627 83.188 64.664C82.715 63.702 82.002 63.222 81.054 63.222C80.087 63.222 79.39 63.713 78.959 64.694C78.528 65.675 78.312 67.49 78.312 70.143Z" fill="black"/>
</svg>
