<svg width="144" height="144" viewBox="0 0 144 144" fill="none" xmlns="http://www.w3.org/2000/svg">
<path d="M143.144 71.9681C143.144 111.406 111.175 143.377 71.737 143.377C32.298 143.377 0.323975 111.406 0.323975 71.9681C0.323975 32.5291 32.298 0.555054 71.737 0.555054C111.175 0.555054 143.144 32.5281 143.144 71.9681Z" fill="white"/>
<path d="M0.323975 71.9681C0.323975 83.3491 2.99997 94.1 7.73697 103.647H135.732C140.468 94.1 143.145 83.3491 143.145 71.9681C143.145 60.5861 140.469 49.8321 135.732 40.2831H7.73596C2.99996 49.8321 0.323975 60.5861 0.323975 71.9681Z" fill="#EB7914"/>
<path d="M121.928 105.387C121.234 105.387 120.53 105.208 119.888 104.829C117.964 103.702 117.32 101.228 118.448 99.305C119.455 97.588 120.372 95.803 121.174 94.005C122.081 91.971 124.467 91.0531 126.505 91.9601C128.542 92.8691 129.457 95.2561 128.55 97.2911C127.627 99.3621 126.573 101.415 125.414 103.389C124.662 104.672 123.313 105.387 121.928 105.387Z" fill="black"/>
<path d="M71.705 134.186C69.476 134.186 67.667 132.377 67.667 130.148C67.667 127.917 69.476 126.111 71.705 126.111C86.199 126.111 99.82 120.454 110.056 110.182C111.628 108.605 114.188 108.599 115.765 110.171C117.345 111.748 117.35 114.303 115.776 115.883C104.012 127.685 88.362 134.186 71.705 134.186Z" fill="black"/>
<path d="M101.086 71.9681C101.086 88.1811 87.9489 101.321 71.7359 101.321C55.5229 101.321 42.3799 88.1811 42.3799 71.9681C42.3799 55.7551 55.5229 42.6121 71.7359 42.6121C87.9489 42.6121 101.086 55.7551 101.086 71.9681Z" fill="white"/>
<path d="M65.9751 59.7341V81.1461H60.0581V67.1151C59.1011 67.8431 58.1731 68.4311 57.2801 68.8821C56.3861 69.3341 55.2611 69.765 53.9131 70.175V65.3781C55.9031 64.7391 57.4481 63.9661 58.5521 63.0671C59.6511 62.1681 60.5131 61.0561 61.1361 59.7341H65.9751Z" fill="black"/>
<path d="M78.0081 66.1821L72.4801 65.1921C72.9401 63.4301 73.8231 62.0801 75.1301 61.1431C76.4361 60.2031 78.287 59.735 80.679 59.735C83.428 59.735 85.4151 60.2481 86.6401 61.2701C87.8651 62.2941 88.4771 63.5831 88.4771 65.1331C88.4771 66.0431 88.2271 66.8681 87.7301 67.6041C87.2331 68.3401 86.4811 68.9871 85.4771 69.5441C86.2901 69.7431 86.9131 69.981 87.3441 70.248C88.0431 70.677 88.5841 71.244 88.9731 71.946C89.3601 72.65 89.554 73.4921 89.554 74.4691C89.554 75.6941 89.2331 76.868 88.5921 77.993C87.9501 79.118 87.0281 79.9831 85.8191 80.5931C84.6151 81.2001 83.027 81.5031 81.067 81.5031C79.153 81.5031 77.6421 81.2791 76.5361 80.8301C75.4321 80.3781 74.5221 79.7211 73.8071 78.8531C73.0951 77.9881 72.5451 76.8971 72.1641 75.5881L78.007 74.8101C78.238 75.9881 78.596 76.8051 79.08 77.2601C79.563 77.7141 80.179 77.9431 80.925 77.9431C81.708 77.9431 82.36 77.6541 82.886 77.0811C83.406 76.5091 83.666 75.7411 83.666 74.7841C83.666 73.8061 83.416 73.0501 82.912 72.5131C82.41 71.9771 81.7291 71.709 80.8671 71.709C80.4071 71.709 79.7741 71.8241 78.9691 72.0561L79.2721 67.876C79.5981 67.924 79.8531 67.9471 80.0341 67.9471C80.7991 67.9471 81.4371 67.7031 81.9501 67.2141C82.4631 66.7281 82.718 66.147 82.718 65.48C82.718 64.838 82.529 64.3231 82.1451 63.9421C81.7611 63.5611 81.2351 63.3671 80.5651 63.3671C79.8741 63.3671 79.3161 63.5771 78.8851 63.9921C78.4541 64.4071 78.1601 65.1391 78.0081 66.1821Z" fill="black"/>
</svg>
