<svg width="144" height="144" viewBox="0 0 144 144" fill="none" xmlns="http://www.w3.org/2000/svg">
<path d="M143.797 72.0331C143.797 111.471 111.823 143.446 72.384 143.446C32.946 143.446 0.977051 111.472 0.977051 72.0331C0.977051 32.5941 32.946 0.623047 72.384 0.623047C111.823 0.623047 143.797 32.5941 143.797 72.0331Z" fill="#B5191B"/>
<path d="M67.6471 19.4281C64.8721 19.4281 62.5161 17.2931 62.2851 14.4781C62.0491 11.5131 64.2571 8.91806 67.2221 8.67706C68.9311 8.54006 70.6651 8.46906 72.3841 8.46906C75.3601 8.46906 77.7681 10.8791 77.7681 13.8521C77.7681 16.8251 75.3601 19.2351 72.3841 19.2351C70.9541 19.2351 69.5091 19.2931 68.0891 19.4081C67.9421 19.4221 67.7951 19.4281 67.6471 19.4281Z" fill="white"/>
<path d="M28.214 39.549C26.974 39.549 25.728 39.121 24.713 38.251C22.458 36.314 22.194 32.915 24.135 30.66C31.148 22.488 40.158 16.193 50.199 12.455C52.985 11.414 56.087 12.836 57.123 15.62C58.158 18.407 56.744 21.505 53.958 22.544C45.62 25.648 38.134 30.879 32.304 37.674C31.237 38.913 29.733 39.549 28.214 39.549Z" fill="white"/>
<path d="M101.74 72.0331C101.74 88.2461 88.5962 101.388 72.3842 101.388C56.1722 101.388 43.0342 88.2451 43.0342 72.0331C43.0342 55.8211 56.1712 42.6801 72.3842 42.6801C88.5972 42.6801 101.74 55.8201 101.74 72.0331Z" fill="white"/>
<path d="M69.535 66.25L64.004 65.259C64.467 63.498 65.351 62.147 66.654 61.209C67.963 60.271 69.813 59.803 72.205 59.803C74.955 59.803 76.942 60.315 78.167 61.338C79.392 62.363 80.002 63.651 80.002 65.202C80.002 66.111 79.755 66.9341 79.255 67.673C78.761 68.409 78.01 69.056 77.005 69.611C77.815 69.813 78.441 70.047 78.871 70.315C79.57 70.746 80.112 71.3141 80.501 72.0161C80.885 72.7211 81.079 73.562 81.079 74.537C81.079 75.765 80.759 76.939 80.117 78.064C79.475 79.189 78.555 80.054 77.346 80.661C76.142 81.271 74.555 81.573 72.594 81.573C70.68 81.573 69.166 81.349 68.062 80.9C66.958 80.448 66.049 79.791 65.333 78.923C64.618 78.0581 64.071 76.9671 63.688 75.6561L69.534 74.881C69.765 76.059 70.123 76.876 70.606 77.331C71.089 77.786 71.705 78.012 72.451 78.012C73.235 78.012 73.887 77.726 74.412 77.153C74.933 76.577 75.19 75.813 75.19 74.853C75.19 73.878 74.943 73.121 74.438 72.584C73.934 72.048 73.255 71.78 72.393 71.78C71.93 71.78 71.299 71.896 70.496 72.124L70.796 67.9471C71.121 67.9941 71.379 68.0181 71.558 68.0181C72.326 68.0181 72.962 67.774 73.477 67.285C73.987 66.799 74.245 66.2181 74.245 65.548C74.245 64.9071 74.056 64.394 73.672 64.013C73.288 63.629 72.763 63.437 72.09 63.437C71.402 63.437 70.844 63.645 70.413 64.062C69.981 64.476 69.688 65.207 69.535 66.25Z" fill="black"/>
</svg>
