<svg width="144" height="143" viewBox="0 0 144 143" fill="none" xmlns="http://www.w3.org/2000/svg">
<path d="M143.676 71.562C143.676 111.001 111.708 142.972 72.2699 142.972C32.8309 142.972 0.856934 111.001 0.856934 71.562C0.856934 32.124 32.8309 0.150024 72.2699 0.150024C111.708 0.149024 143.676 32.123 143.676 71.562Z" fill="white"/>
<path d="M0.855957 71.562C0.855957 82.944 3.53204 93.695 8.26904 103.242H136.266C140.999 93.695 143.675 82.944 143.675 71.562C143.675 60.181 140.999 49.427 136.263 39.877H8.27002C3.53202 49.427 0.855957 60.181 0.855957 71.562Z" fill="#452778"/>
<path d="M122.472 104.981C121.778 104.981 121.074 104.802 120.432 104.423C118.508 103.295 117.865 100.822 118.992 98.898C119.999 97.182 120.917 95.397 121.718 93.599C122.628 91.565 125.017 90.647 127.049 91.554C129.086 92.463 130.001 94.85 129.094 96.885C128.171 98.956 127.117 101.009 125.958 102.983C125.205 104.267 123.857 104.981 122.472 104.981Z" fill="black"/>
<path d="M72.2479 133.779C70.0189 133.779 68.2109 131.97 68.2109 129.742C68.2109 127.511 70.0199 125.705 72.2479 125.705C86.7419 125.705 100.363 120.048 110.599 109.775C112.173 108.198 114.734 108.193 116.308 109.765C117.888 111.341 117.893 113.897 116.319 115.476C104.556 127.279 88.9049 133.779 72.2479 133.779Z" fill="black"/>
<path d="M101.619 71.562C101.619 87.775 88.4822 100.916 72.2692 100.916C56.0562 100.916 42.9131 87.775 42.9131 71.562C42.9131 55.349 56.0572 42.207 72.2692 42.207C88.4812 42.207 101.619 55.349 101.619 71.562Z" fill="white"/>
<path d="M66.5552 59.328V80.74H60.6411V66.71C59.6841 67.438 58.7561 68.026 57.8601 68.476C56.9661 68.928 55.8441 69.36 54.4961 69.77V64.972C56.4851 64.333 58.0312 63.561 59.1332 62.662C60.2342 61.763 61.0941 60.65 61.7191 59.328H66.5552Z" fill="black"/>
<path d="M90.0353 80.74H72.4873C72.6893 79.009 73.3002 77.376 74.3192 75.851C75.3392 74.324 77.2502 72.521 80.0542 70.444C81.7682 69.17 82.8652 68.202 83.3452 67.543C83.8242 66.883 84.0603 66.258 84.0603 65.663C84.0603 65.022 83.8242 64.473 83.3502 64.017C82.8772 63.563 82.2812 63.333 81.5632 63.333C80.8172 63.333 80.2073 63.57 79.7343 64.038C79.2573 64.506 78.9402 65.337 78.7772 66.524L72.9182 66.048C73.1472 64.4 73.5672 63.117 74.1832 62.192C74.7932 61.267 75.6613 60.56 76.7753 60.069C77.8893 59.575 79.4352 59.327 81.4072 59.327C83.4652 59.327 85.0653 59.564 86.2123 60.032C87.3533 60.5 88.2543 61.22 88.9093 62.192C89.5653 63.165 89.8912 64.254 89.8912 65.46C89.8912 66.743 89.5182 67.971 88.7662 69.138C88.0142 70.305 86.6483 71.587 84.6653 72.986C83.4873 73.801 82.6992 74.369 82.3032 74.695C81.9062 75.021 81.4382 75.447 80.9022 75.972H90.0363L90.0353 80.74Z" fill="black"/>
</svg>
