<svg width="144" height="144" viewBox="0 0 144 144" fill="none" xmlns="http://www.w3.org/2000/svg">
<path d="M71.8971 143.444C111.336 143.444 143.308 111.472 143.308 72.033C143.308 32.5938 111.336 0.622009 71.8971 0.622009C32.4579 0.622009 0.486084 32.5938 0.486084 72.033C0.486084 111.472 32.4579 143.444 71.8971 143.444Z" fill="#213360"/>
<path d="M67.1592 19.428C64.3832 19.428 62.0262 17.293 61.8002 14.478C61.5612 11.513 63.7692 8.918 66.7312 8.677C68.4392 8.54 70.1802 8.46899 71.8982 8.46899C74.8712 8.46899 77.2812 10.879 77.2812 13.852C77.2812 16.825 74.8712 19.235 71.8982 19.235C70.4652 19.235 69.0202 19.293 67.5982 19.408C67.4512 19.422 67.3032 19.428 67.1592 19.428Z" fill="white"/>
<path d="M27.725 39.549C26.485 39.549 25.239 39.121 24.222 38.251C21.967 36.314 21.706 32.915 23.643 30.66C30.656 22.488 39.669 16.193 49.71 12.455C52.502 11.414 55.595 12.836 56.634 15.62C57.672 18.407 56.253 21.505 53.467 22.544C45.132 25.648 37.643 30.879 31.813 37.674C30.748 38.913 29.242 39.549 27.725 39.549Z" fill="white"/>
<path d="M71.8972 101.387C88.1089 101.387 101.251 88.2448 101.251 72.033C101.251 55.8213 88.1089 42.679 71.8972 42.679C55.6854 42.679 42.5432 55.8213 42.5432 72.033C42.5432 88.2448 55.6854 101.387 71.8972 101.387Z" fill="white"/>
<path d="M80.672 81.214H63.124C63.324 79.482 63.934 77.849 64.954 76.325C65.974 74.798 67.887 72.994 70.692 70.918C72.406 69.644 73.502 68.676 73.981 68.016C74.459 67.356 74.698 66.728 74.698 66.134C74.698 65.492 74.462 64.946 73.989 64.491C73.516 64.036 72.919 63.808 72.201 63.808C71.455 63.808 70.842 64.042 70.369 64.512C69.896 64.98 69.578 65.808 69.415 66.996L63.556 66.523C63.785 64.875 64.205 63.589 64.818 62.667C65.43 61.742 66.295 61.035 67.412 60.541C68.526 60.05 70.069 59.803 72.043 59.803C74.101 59.803 75.702 60.037 76.845 60.507C77.989 60.975 78.89 61.695 79.545 62.668C80.202 63.641 80.528 64.729 80.528 65.936C80.528 67.219 80.153 68.443 79.401 69.611C78.652 70.78 77.285 72.063 75.303 73.462C74.125 74.274 73.337 74.845 72.94 75.17C72.543 75.496 72.075 75.922 71.539 76.447H80.673L80.672 81.214Z" fill="black"/>
</svg>
