<svg width="144" height="144" viewBox="0 0 144 144" fill="none" xmlns="http://www.w3.org/2000/svg">
<path d="M72.2689 143.375C111.708 143.375 143.679 111.404 143.679 71.9651C143.679 32.5264 111.708 0.555054 72.2689 0.555054C32.8303 0.555054 0.858887 32.5264 0.858887 71.9651C0.858887 111.404 32.8303 143.375 72.2689 143.375Z" fill="white"/>
<path d="M125.269 105.384C124.575 105.384 123.871 105.205 123.229 104.832C121.305 103.702 120.659 101.228 121.789 99.307C122.793 97.588 123.714 95.806 124.513 94.008C125.422 91.968 127.809 91.0531 129.843 91.9631C131.883 92.8671 132.798 95.2541 131.888 97.2931C130.968 99.3641 129.911 101.415 128.755 103.392C128.002 104.672 126.651 105.384 125.269 105.384Z" fill="black"/>
<path d="M75.0419 134.183C72.8129 134.183 71.0049 132.377 71.0049 130.145C71.0049 127.916 72.8139 126.108 75.0419 126.108C89.5359 126.108 103.157 120.452 113.393 110.182C114.97 108.602 117.531 108.599 119.102 110.173C120.685 111.745 120.69 114.303 119.113 115.883C107.353 127.685 91.7019 134.183 75.0419 134.183Z" fill="black"/>
</svg>
