<svg width="21" height="21" viewBox="0 0 21 21" fill="none" xmlns="http://www.w3.org/2000/svg">
<path fill-rule="evenodd" clip-rule="evenodd" d="M10.5 19.425C12.985 19.425 15.0937 18.5544 16.8262 16.8131C18.5587 15.0719 19.425 12.9675 19.425 10.5C19.425 8.015 18.5587 5.90625 16.8262 4.17375C15.0937 2.44125 12.985 1.575 10.5 1.575C8.0325 1.575 5.92812 2.44125 4.18687 4.17375C2.44562 5.90625 1.575 8.015 1.575 10.5C1.575 12.9675 2.44562 15.0719 4.18687 16.8131C5.92812 18.5544 8.0325 19.425 10.5 19.425ZM16.38 7.84875L8.95125 15.2775L4.62 10.92L5.80125 9.73875L8.95125 12.8888L15.1725 6.6675L16.38 7.84875Z" fill="#27A27A"/>
<path fill-rule="evenodd" clip-rule="evenodd" d="M6.43125 20.1731C7.70875 20.7244 9.065 21 10.5 21C11.9525 21 13.3175 20.7244 14.595 20.1731C15.8725 19.6219 16.9837 18.8694 17.9287 17.9156C18.8737 16.9619 19.6219 15.8462 20.1731 14.5687C20.7244 13.2912 21 11.935 21 10.5C21 9.0475 20.7244 7.6825 20.1731 6.405C19.6219 5.1275 18.8737 4.01625 17.9287 3.07125C16.9837 2.12625 15.8725 1.37813 14.595 0.826875C13.3175 0.275625 11.9525 0 10.5 0C9.065 0 7.70875 0.275625 6.43125 0.826875C5.15375 1.37813 4.03812 2.12625 3.08437 3.07125C2.13063 4.01625 1.37813 5.1275 0.826875 6.405C0.275625 7.6825 0 9.0475 0 10.5C0 11.935 0.275625 13.2912 0.826875 14.5687C1.37813 15.8462 2.13063 16.9619 3.08437 17.9156C4.03812 18.8694 5.15375 19.6219 6.43125 20.1731ZM16.8262 16.8131C15.0937 18.5544 12.985 19.425 10.5 19.425C8.0325 19.425 5.92812 18.5544 4.18687 16.8131C2.44562 15.0719 1.575 12.9675 1.575 10.5C1.575 8.015 2.44562 5.90625 4.18687 4.17375C5.92812 2.44125 8.0325 1.575 10.5 1.575C12.985 1.575 15.0937 2.44125 16.8262 4.17375C18.5587 5.90625 19.425 8.015 19.425 10.5C19.425 12.9675 18.5587 15.0719 16.8262 16.8131Z" fill="#27A27A"/>
</svg>
