<svg width="43" height="43" viewBox="0 0 43 43" fill="none" xmlns="http://www.w3.org/2000/svg">
<mask id="mask0_355_478" style="mask-type:alpha" maskUnits="userSpaceOnUse" x="0" y="0" width="43" height="43">
<rect width="43" height="43" fill="#D9D9D9"/>
</mask>
<g mask="url(#mask0_355_478)">
<path d="M15.6771 40.1783C14.3035 40.1783 13.0717 39.8199 11.9818 39.1033C10.8918 38.3866 10.0483 37.4012 9.45104 36.147C8.97326 36.7741 8.36858 37.2593 7.63698 37.6027C6.90538 37.9461 6.15139 38.1178 5.375 38.1178C3.85208 38.1178 2.57552 37.5953 1.54531 36.5501C0.515104 35.505 0 34.2359 0 32.7428C0 31.4588 0.418056 30.3017 1.25417 29.2715C2.09028 28.2413 3.15035 27.6515 4.43438 27.5022C4.01632 26.905 3.69531 26.2705 3.47135 25.5986C3.2474 24.9267 3.13542 24.2175 3.13542 23.471C3.13542 22.2765 3.44149 21.1567 4.05365 20.1116C4.6658 19.0665 5.52431 18.2154 6.62917 17.5585C6.77847 18.096 6.98003 18.6708 7.23385 19.283C7.48767 19.8951 7.77882 20.4251 8.10729 20.8731C7.68924 21.2015 7.36076 21.5972 7.12188 22.06C6.88299 22.5229 6.76354 23.0081 6.76354 23.5158C6.76354 25.188 7.45035 26.2182 8.82396 26.6064C10.1976 26.9946 11.4965 27.3081 12.7208 27.547L13.5719 28.9803C13.2434 29.9359 12.9597 30.7496 12.7208 31.4215C12.4819 32.0934 12.3625 32.6981 12.3625 33.2356C12.3625 34.1314 12.6835 34.9152 13.3255 35.5871C13.9675 36.259 14.7514 36.5949 15.6771 36.5949C16.8118 36.5949 17.7524 36.0873 18.499 35.072C19.2455 34.0567 19.8576 32.8623 20.3354 31.4887C20.8132 30.1151 21.179 28.7265 21.4328 27.3231C21.6866 25.9196 21.8882 24.8446 22.0375 24.0981L25.5312 25.0387C25.2625 26.3824 24.934 27.9203 24.5458 29.6522C24.1576 31.3842 23.6127 33.034 22.9109 34.6017C22.2092 36.1694 21.2835 37.4908 20.1339 38.5658C18.9842 39.6408 17.4986 40.1783 15.6771 40.1783ZM5.375 34.5345C5.88264 34.5345 6.30816 34.3628 6.65156 34.0194C6.99497 33.676 7.16667 33.2505 7.16667 32.7428C7.16667 32.2352 6.99497 31.8097 6.65156 31.4663C6.30816 31.1229 5.88264 30.9512 5.375 30.9512C4.86736 30.9512 4.44184 31.1229 4.09844 31.4663C3.75503 31.8097 3.58333 32.2352 3.58333 32.7428C3.58333 33.2505 3.75503 33.676 4.09844 34.0194C4.44184 34.3628 4.86736 34.5345 5.375 34.5345ZM18.0958 27.4574C16.7222 26.2331 15.4755 25.0909 14.3557 24.0309C13.2359 22.9708 12.2729 21.9406 11.4667 20.9402C10.6604 19.9399 10.0408 18.9396 9.60781 17.9392C9.17483 16.9389 8.95833 15.9012 8.95833 14.8262C8.95833 12.8852 9.62274 11.2503 10.9516 9.92149C12.2804 8.59267 13.9153 7.92826 15.8563 7.92826C15.9757 7.92826 16.0802 7.93573 16.1698 7.95066C16.2594 7.96559 16.3639 7.97306 16.4833 7.97306C16.3639 7.67444 16.2743 7.37583 16.2146 7.07722C16.1549 6.77861 16.125 6.46507 16.125 6.1366C16.125 4.64354 16.6476 3.37444 17.6927 2.32931C18.7378 1.28417 20.0069 0.761597 21.5 0.761597C22.9931 0.761597 24.2622 1.28417 25.3073 2.32931C26.3524 3.37444 26.875 4.64354 26.875 6.1366C26.875 6.46507 26.8451 6.77115 26.7854 7.05483C26.7257 7.33851 26.6361 7.62965 26.5167 7.92826H27.1438C28.9354 7.92826 30.4583 8.50309 31.7125 9.65274C32.9667 10.8024 33.7132 12.2283 33.9521 13.9303C33.4146 13.8408 32.8099 13.796 32.138 13.796C31.4661 13.796 30.8465 13.8258 30.2792 13.8856C30.0701 13.1988 29.6894 12.6314 29.137 12.1835C28.5845 11.7356 27.9201 11.5116 27.1438 11.5116C26.0986 11.5116 25.2849 11.8177 24.7026 12.4298C24.1203 13.042 23.3215 13.9303 22.3062 15.0949H20.649C19.6038 13.8706 18.7901 12.9673 18.2078 12.385C17.6255 11.8027 16.8417 11.5116 15.8563 11.5116C14.9007 11.5116 14.1094 11.8251 13.4823 12.4522C12.8552 13.0793 12.5417 13.8706 12.5417 14.8262C12.5417 15.513 12.7358 16.2222 13.124 16.9538C13.5122 17.6854 14.0571 18.4618 14.7589 19.283C15.4606 20.1041 16.3116 20.9776 17.312 21.9033C18.3123 22.829 19.4247 23.8293 20.649 24.9043L18.0958 27.4574ZM21.5 7.92826C22.0076 7.92826 22.4332 7.75656 22.7766 7.41316C23.12 7.06976 23.2917 6.64424 23.2917 6.1366C23.2917 5.62896 23.12 5.20344 22.7766 4.86003C22.4332 4.51663 22.0076 4.34493 21.5 4.34493C20.9924 4.34493 20.5668 4.51663 20.2234 4.86003C19.88 5.20344 19.7083 5.62896 19.7083 6.1366C19.7083 6.64424 19.88 7.06976 20.2234 7.41316C20.5668 7.75656 20.9924 7.92826 21.5 7.92826ZM27.2781 40.1783C26.6212 40.1783 25.9717 40.0887 25.3297 39.9095C24.6877 39.7304 24.0681 39.4467 23.4708 39.0585C23.7993 38.6404 24.1278 38.1477 24.4563 37.5803C24.7847 37.013 25.0833 36.4904 25.3521 36.0126C25.6806 36.2217 26.009 36.371 26.3375 36.4606C26.666 36.5501 26.9944 36.5949 27.3229 36.5949C28.2785 36.5949 29.0773 36.259 29.7193 35.5871C30.3613 34.9152 30.6823 34.1165 30.6823 33.1908C30.6823 32.6234 30.5628 32.0113 30.324 31.3543C30.0851 30.6974 29.8014 29.8911 29.4729 28.9356L30.324 27.5022C31.5781 27.2633 32.8845 26.9498 34.2432 26.5616C35.6019 26.1734 36.2812 25.1432 36.2812 23.471C36.2812 22.2765 35.8408 21.4106 34.9599 20.8731C34.079 20.3356 33.116 20.0668 32.0708 20.0668C30.8167 20.0668 29.3535 20.3057 27.6812 20.7835C26.009 21.2613 24.0531 21.8734 21.8135 22.6199L20.8729 19.1262C23.2021 18.3797 25.2774 17.7526 27.099 17.2449C28.9205 16.7373 30.5927 16.4835 32.1156 16.4835C34.176 16.4835 35.9826 17.0956 37.5354 18.3199C39.0882 19.5442 39.8646 21.2613 39.8646 23.471C39.8646 24.2175 39.7526 24.9267 39.5286 25.5986C39.3047 26.2705 38.9837 26.905 38.5656 27.5022C39.8497 27.6515 40.9097 28.2413 41.7458 29.2715C42.5819 30.3017 43 31.4588 43 32.7428C43 34.2359 42.4849 35.505 41.4547 36.5501C40.4245 37.5953 39.1479 38.1178 37.625 38.1178C36.8486 38.1178 36.0946 37.9461 35.363 37.6027C34.6314 37.2593 34.0267 36.7741 33.549 36.147C32.9517 37.4012 32.1082 38.3866 31.0182 39.1033C29.9283 39.8199 28.6816 40.1783 27.2781 40.1783ZM37.6698 34.5345C38.1774 34.5345 38.5955 34.3628 38.924 34.0194C39.2524 33.676 39.4167 33.2505 39.4167 32.7428C39.4167 32.2352 39.245 31.8022 38.9016 31.4439C38.5582 31.0856 38.1326 30.9064 37.625 30.9064C37.1174 30.9064 36.6918 31.0781 36.3484 31.4215C36.005 31.7649 35.8333 32.1904 35.8333 32.6981C35.8333 33.2057 36.0125 33.6387 36.3708 33.997C36.7292 34.3554 37.1622 34.5345 37.6698 34.5345Z" fill="#D25A34"/>
</g>
</svg>
