<svg width="38" height="37" viewBox="0 0 38 37" fill="none" xmlns="http://www.w3.org/2000/svg">
<mask id="mask0_235_1729" style="mask-type:alpha" maskUnits="userSpaceOnUse" x="0" y="0" width="38" height="37">
<rect x="0.902344" width="36.2989" height="36.2989" fill="#D9D9D9"/>
</mask>
<g mask="url(#mask0_235_1729)">
<path d="M19.808 18.0738C20.539 17.2672 21.0999 16.3471 21.4906 15.3136C21.8813 14.2801 22.0767 13.2088 22.0767 12.0996C22.0767 10.9905 21.8813 9.91919 21.4906 8.88568C21.0999 7.85217 20.539 6.9321 19.808 6.12546C21.3205 6.32712 22.5808 6.99512 23.5891 8.12946C24.5974 9.2638 25.1016 10.5872 25.1016 12.0996C25.1016 13.6121 24.5974 14.9355 23.5891 16.0698C22.5808 17.2042 21.3205 17.8722 19.808 18.0738ZM28.1265 30.2491V25.7117C28.1265 24.8042 27.9248 23.9409 27.5215 23.1216C27.1182 22.3024 26.5888 21.5777 25.9334 20.9475C27.219 21.4012 28.4101 21.9873 29.5066 22.7057C30.6031 23.4241 31.1514 24.4261 31.1514 25.7117V30.2491H28.1265ZM31.1514 19.6619V16.637H28.1265V13.6121H31.1514V10.5872H34.1763V13.6121H37.2012V16.637H34.1763V19.6619H31.1514ZM13.002 18.1495C11.3383 18.1495 9.91404 17.5571 8.72929 16.3723C7.54453 15.1876 6.95215 13.7633 6.95215 12.0996C6.95215 10.4359 7.54453 9.01172 8.72929 7.82697C9.91404 6.64221 11.3383 6.04984 13.002 6.04984C14.6657 6.04984 16.0899 6.64221 17.2746 7.82697C18.4594 9.01172 19.0518 10.4359 19.0518 12.0996C19.0518 13.7633 18.4594 15.1876 17.2746 16.3723C16.0899 17.5571 14.6657 18.1495 13.002 18.1495ZM0.902344 30.2491V26.0142C0.902344 25.1572 1.12291 24.3694 1.56404 23.651C2.00517 22.9326 2.59125 22.3843 3.32227 22.0062C4.88514 21.2248 6.47321 20.6387 8.08649 20.248C9.69978 19.8573 11.3383 19.6619 13.002 19.6619C14.6657 19.6619 16.3042 19.8573 17.9174 20.248C19.5307 20.6387 21.1188 21.2248 22.6817 22.0062C23.4127 22.3843 23.9988 22.9326 24.4399 23.651C24.881 24.3694 25.1016 25.1572 25.1016 26.0142V30.2491H0.902344ZM13.002 15.1246C13.8338 15.1246 14.5459 14.8284 15.1383 14.236C15.7307 13.6436 16.0269 12.9315 16.0269 12.0996C16.0269 11.2678 15.7307 10.5557 15.1383 9.96331C14.5459 9.37093 13.8338 9.07474 13.002 9.07474C12.1701 9.07474 11.458 9.37093 10.8656 9.96331C10.2732 10.5557 9.97706 11.2678 9.97706 12.0996C9.97706 12.9315 10.2732 13.6436 10.8656 14.236C11.458 14.8284 12.1701 15.1246 13.002 15.1246ZM3.92725 27.2242H22.0767V26.0142C22.0767 25.7369 22.0074 25.4848 21.8687 25.258C21.7301 25.0311 21.5473 24.8547 21.3205 24.7286C19.9592 24.048 18.5854 23.5376 17.199 23.1973C15.8126 22.857 14.4136 22.6868 13.002 22.6868C11.5903 22.6868 10.1913 22.857 8.80491 23.1973C7.41849 23.5376 6.04468 24.048 4.68348 24.7286C4.45661 24.8547 4.27385 25.0311 4.13521 25.258C3.99657 25.4848 3.92725 25.7369 3.92725 26.0142V27.2242Z" fill="white" fill-opacity="0.5"/>
</g>
</svg>
