<svg width="55" height="43" viewBox="0 0 55 43" fill="none" xmlns="http://www.w3.org/2000/svg">
<path d="M2.17708 23.3105C1.48958 21.9526 0.954861 20.5759 0.572917 19.1803C0.190972 17.7846 0 16.3702 0 14.9368C0 10.7123 1.45139 7.16667 4.35417 4.3C7.25694 1.43333 10.8472 0 15.125 0C17.5312 0 19.8229 0.499781 22 1.49934C24.1771 2.4989 26.0104 3.88509 27.5 5.65789C28.9896 3.88509 30.8229 2.4989 33 1.49934C35.1771 0.499781 37.4688 0 39.875 0C44.1528 0 47.7431 1.43333 50.6458 4.3C53.5486 7.16667 55 10.7123 55 14.9368C55 16.3702 54.809 17.7846 54.4271 19.1803C54.0451 20.5759 53.5104 21.9526 52.8229 23.3105C52.4028 22.5939 51.9062 21.9526 51.3333 21.3868C50.7604 20.8211 50.092 20.3684 49.3281 20.0289C49.6719 19.1614 49.9392 18.3127 50.1302 17.4829C50.3212 16.6531 50.4167 15.8044 50.4167 14.9368C50.4167 11.9947 49.4045 9.52412 47.3802 7.525C45.3559 5.52588 42.8542 4.52632 39.875 4.52632C36.7812 4.52632 34.4036 5.36557 32.7422 7.04408C31.0807 8.72259 29.3333 10.5991 27.5 12.6737C25.6667 10.5614 23.9193 8.67544 22.2578 7.01579C20.5964 5.35614 18.2188 4.52632 15.125 4.52632C12.1458 4.52632 9.6441 5.52588 7.61979 7.525C5.59549 9.52412 4.58333 11.9947 4.58333 14.9368C4.58333 15.8044 4.67882 16.6531 4.86979 17.4829C5.06076 18.3127 5.32813 19.1614 5.67188 20.0289C4.90799 20.3684 4.23958 20.8211 3.66667 21.3868C3.09375 21.9526 2.59722 22.5939 2.17708 23.3105ZM0 43V39.4355C0 37.7759 0.849827 36.4463 2.54948 35.4467C4.24913 34.4471 6.45486 33.9474 9.16667 33.9474C9.66319 33.9474 10.1406 33.9568 10.599 33.9757C11.0573 33.9945 11.4965 34.0417 11.9167 34.1171C11.3819 34.8715 10.9809 35.6825 10.7135 36.55C10.4462 37.4175 10.3125 38.3417 10.3125 39.3224V43H0ZM13.75 43V39.3224C13.75 36.8706 15.02 34.8904 17.5599 33.3816C20.0998 31.8728 23.4132 31.1184 27.5 31.1184C31.625 31.1184 34.9479 31.8728 37.4688 33.3816C39.9896 34.8904 41.25 36.8706 41.25 39.3224V43H13.75ZM44.6875 43V39.3224C44.6875 38.3417 44.5634 37.4175 44.3151 36.55C44.0668 35.6825 43.6944 34.8715 43.1979 34.1171C43.6181 34.0417 44.0477 33.9945 44.487 33.9757C44.9262 33.9568 45.375 33.9474 45.8333 33.9474C48.5833 33.9474 50.7986 34.4471 52.4792 35.4467C54.1597 36.4463 55 37.7759 55 39.4355V43H44.6875ZM27.5 35.6447C25.3229 35.6447 23.375 35.9276 21.6562 36.4934C19.9375 37.0592 18.9253 37.7193 18.6198 38.4737H36.4375C36.0938 37.7193 35.072 37.0592 33.3724 36.4934C31.6727 35.9276 29.7153 35.6447 27.5 35.6447ZM9.16667 31.6842C7.90625 31.6842 6.82726 31.241 5.92969 30.3546C5.03212 29.4682 4.58333 28.4026 4.58333 27.1579C4.58333 25.8754 5.03212 24.8004 5.92969 23.9329C6.82726 23.0653 7.90625 22.6316 9.16667 22.6316C10.4653 22.6316 11.5538 23.0653 12.4323 23.9329C13.3108 24.8004 13.75 25.8754 13.75 27.1579C13.75 28.4026 13.3108 29.4682 12.4323 30.3546C11.5538 31.241 10.4653 31.6842 9.16667 31.6842ZM45.8333 31.6842C44.5729 31.6842 43.4939 31.241 42.5964 30.3546C41.6988 29.4682 41.25 28.4026 41.25 27.1579C41.25 25.8754 41.6988 24.8004 42.5964 23.9329C43.4939 23.0653 44.5729 22.6316 45.8333 22.6316C47.1319 22.6316 48.2205 23.0653 49.099 23.9329C49.9774 24.8004 50.4167 25.8754 50.4167 27.1579C50.4167 28.4026 49.9774 29.4682 49.099 30.3546C48.2205 31.241 47.1319 31.6842 45.8333 31.6842ZM27.5 29.4211C25.5903 29.4211 23.967 28.761 22.6302 27.4408C21.2934 26.1206 20.625 24.5175 20.625 22.6316C20.625 20.7079 21.2934 19.0954 22.6302 17.7941C23.967 16.4928 25.5903 15.8421 27.5 15.8421C29.4479 15.8421 31.0807 16.4928 32.3984 17.7941C33.7161 19.0954 34.375 20.7079 34.375 22.6316C34.375 24.5175 33.7161 26.1206 32.3984 27.4408C31.0807 28.761 29.4479 29.4211 27.5 29.4211ZM27.5 20.3684C26.8507 20.3684 26.3064 20.5853 25.8672 21.0191C25.428 21.4529 25.2083 21.9904 25.2083 22.6316C25.2083 23.2728 25.428 23.8103 25.8672 24.2441C26.3064 24.6779 26.8507 24.8947 27.5 24.8947C28.1493 24.8947 28.6936 24.6779 29.1328 24.2441C29.5721 23.8103 29.7917 23.2728 29.7917 22.6316C29.7917 21.9904 29.5721 21.4529 29.1328 21.0191C28.6936 20.5853 28.1493 20.3684 27.5 20.3684Z" fill="#D8E445"/>
</svg>
