<svg width="430" height="751" viewBox="0 0 430 751" fill="none" xmlns="http://www.w3.org/2000/svg">
<g opacity="0.2">
<mask id="mask0_26_1122" style="mask-type:alpha" maskUnits="userSpaceOnUse" x="-104" y="51" width="633" height="633">
<circle cx="212.5" cy="367.5" r="316.5" fill="#F7F7F7" fill-opacity="0.4"/>
</mask>
<g mask="url(#mask0_26_1122)">
<rect x="559.681" y="71.9924" width="1.6148" height="757.339" transform="rotate(90 559.681 71.9924)" fill="url(#paint0_linear_26_1122)"/>
<rect x="559.681" y="102.673" width="1.6148" height="757.339" transform="rotate(90 559.681 102.673)" fill="url(#paint1_linear_26_1122)"/>
<rect x="559.681" y="133.355" width="1.6148" height="757.339" transform="rotate(90 559.681 133.355)" fill="url(#paint2_linear_26_1122)"/>
<rect x="559.681" y="164.036" width="1.6148" height="757.339" transform="rotate(90 559.681 164.036)" fill="url(#paint3_linear_26_1122)"/>
<rect x="559.681" y="194.717" width="1.6148" height="757.339" transform="rotate(90 559.681 194.717)" fill="url(#paint4_linear_26_1122)"/>
<rect x="26.7985" y="0.941315" width="1.6148" height="757.339" fill="url(#paint5_linear_26_1122)"/>
<rect x="559.681" y="225.398" width="1.6148" height="757.339" transform="rotate(90 559.681 225.398)" fill="url(#paint6_linear_26_1122)"/>
<rect x="57.4796" y="0.941315" width="1.6148" height="757.339" fill="url(#paint7_linear_26_1122)"/>
<rect x="559.681" y="256.079" width="1.6148" height="757.339" transform="rotate(90 559.681 256.079)" fill="url(#paint8_linear_26_1122)"/>
<rect x="88.1607" y="0.941315" width="1.6148" height="757.339" fill="url(#paint9_linear_26_1122)"/>
<rect x="559.681" y="286.76" width="1.6148" height="757.339" transform="rotate(90 559.681 286.76)" fill="url(#paint10_linear_26_1122)"/>
<rect x="118.842" y="0.941315" width="1.6148" height="757.339" fill="url(#paint11_linear_26_1122)"/>
<rect x="559.681" y="317.441" width="1.6148" height="757.339" transform="rotate(90 559.681 317.441)" fill="url(#paint12_linear_26_1122)"/>
<rect x="149.523" y="0.941315" width="1.6148" height="757.339" fill="url(#paint13_linear_26_1122)"/>
<rect x="559.681" y="348.122" width="1.6148" height="757.339" transform="rotate(90 559.681 348.122)" fill="url(#paint14_linear_26_1122)"/>
<rect x="180.204" y="0.941315" width="1.6148" height="757.339" fill="url(#paint15_linear_26_1122)"/>
<rect x="559.681" y="378.804" width="1.6148" height="757.339" transform="rotate(90 559.681 378.804)" fill="url(#paint16_linear_26_1122)"/>
<rect x="210.885" y="0.941315" width="1.6148" height="757.339" fill="url(#paint17_linear_26_1122)"/>
<rect x="559.681" y="409.485" width="1.6148" height="757.339" transform="rotate(90 559.681 409.485)" fill="url(#paint18_linear_26_1122)"/>
<rect x="241.566" y="0.941315" width="1.6148" height="757.339" fill="url(#paint19_linear_26_1122)"/>
<rect x="559.681" y="440.166" width="1.6148" height="757.339" transform="rotate(90 559.681 440.166)" fill="url(#paint20_linear_26_1122)"/>
<rect x="272.247" y="0.941315" width="1.6148" height="757.339" fill="url(#paint21_linear_26_1122)"/>
<rect x="559.681" y="470.847" width="1.6148" height="757.339" transform="rotate(90 559.681 470.847)" fill="url(#paint22_linear_26_1122)"/>
<rect x="302.929" y="0.941315" width="1.6148" height="757.339" fill="url(#paint23_linear_26_1122)"/>
<rect x="559.681" y="501.528" width="1.6148" height="757.339" transform="rotate(90 559.681 501.528)" fill="url(#paint24_linear_26_1122)"/>
<rect x="333.61" y="0.941315" width="1.6148" height="757.339" fill="url(#paint25_linear_26_1122)"/>
<rect x="559.681" y="532.209" width="1.6148" height="757.339" transform="rotate(90 559.681 532.209)" fill="url(#paint26_linear_26_1122)"/>
<rect x="364.291" y="0.941315" width="1.6148" height="757.339" fill="url(#paint27_linear_26_1122)"/>
<rect x="559.681" y="562.89" width="1.6148" height="757.339" transform="rotate(90 559.681 562.89)" fill="url(#paint28_linear_26_1122)"/>
<rect x="394.972" y="0.941315" width="1.6148" height="757.339" fill="url(#paint29_linear_26_1122)"/>
<rect x="559.681" y="593.571" width="1.6148" height="757.339" transform="rotate(90 559.681 593.571)" fill="url(#paint30_linear_26_1122)"/>
<rect x="425.653" y="0.941315" width="1.6148" height="757.339" fill="url(#paint31_linear_26_1122)"/>
<rect x="559.681" y="624.253" width="1.6148" height="757.339" transform="rotate(90 559.681 624.253)" fill="url(#paint32_linear_26_1122)"/>
<rect x="559.681" y="654.934" width="1.6148" height="757.339" transform="rotate(90 559.681 654.934)" fill="url(#paint33_linear_26_1122)"/>
</g>
</g>
<defs>
<linearGradient id="paint0_linear_26_1122" x1="560.489" y1="71.9924" x2="560.489" y2="829.332" gradientUnits="userSpaceOnUse">
<stop stop-color="#27A27A"/>
<stop offset="1" stop-color="#0E3C2D" stop-opacity="0.2"/>
</linearGradient>
<linearGradient id="paint1_linear_26_1122" x1="560.489" y1="102.673" x2="560.489" y2="860.013" gradientUnits="userSpaceOnUse">
<stop stop-color="#27A27A"/>
<stop offset="1" stop-color="#0E3C2D" stop-opacity="0.2"/>
</linearGradient>
<linearGradient id="paint2_linear_26_1122" x1="560.489" y1="133.355" x2="560.489" y2="890.694" gradientUnits="userSpaceOnUse">
<stop stop-color="#27A27A"/>
<stop offset="1" stop-color="#0E3C2D" stop-opacity="0.2"/>
</linearGradient>
<linearGradient id="paint3_linear_26_1122" x1="560.489" y1="164.036" x2="560.489" y2="921.375" gradientUnits="userSpaceOnUse">
<stop stop-color="#27A27A"/>
<stop offset="1" stop-color="#0E3C2D" stop-opacity="0.2"/>
</linearGradient>
<linearGradient id="paint4_linear_26_1122" x1="560.489" y1="194.717" x2="560.489" y2="952.056" gradientUnits="userSpaceOnUse">
<stop stop-color="#27A27A"/>
<stop offset="1" stop-color="#0E3C2D" stop-opacity="0.2"/>
</linearGradient>
<linearGradient id="paint5_linear_26_1122" x1="27.6059" y1="0.941315" x2="27.6059" y2="758.281" gradientUnits="userSpaceOnUse">
<stop stop-color="#27A27A"/>
<stop offset="1" stop-color="#0E3C2D" stop-opacity="0.2"/>
</linearGradient>
<linearGradient id="paint6_linear_26_1122" x1="560.489" y1="225.398" x2="560.489" y2="982.737" gradientUnits="userSpaceOnUse">
<stop stop-color="#27A27A"/>
<stop offset="1" stop-color="#0E3C2D" stop-opacity="0.2"/>
</linearGradient>
<linearGradient id="paint7_linear_26_1122" x1="58.287" y1="0.941315" x2="58.287" y2="758.281" gradientUnits="userSpaceOnUse">
<stop stop-color="#27A27A"/>
<stop offset="1" stop-color="#0E3C2D" stop-opacity="0.2"/>
</linearGradient>
<linearGradient id="paint8_linear_26_1122" x1="560.489" y1="256.079" x2="560.489" y2="1013.42" gradientUnits="userSpaceOnUse">
<stop stop-color="#27A27A"/>
<stop offset="1" stop-color="#0E3C2D" stop-opacity="0.2"/>
</linearGradient>
<linearGradient id="paint9_linear_26_1122" x1="88.9681" y1="0.941315" x2="88.9681" y2="758.281" gradientUnits="userSpaceOnUse">
<stop stop-color="#27A27A"/>
<stop offset="1" stop-color="#0E3C2D" stop-opacity="0.2"/>
</linearGradient>
<linearGradient id="paint10_linear_26_1122" x1="560.489" y1="286.76" x2="560.489" y2="1044.1" gradientUnits="userSpaceOnUse">
<stop stop-color="#27A27A"/>
<stop offset="1" stop-color="#0E3C2D" stop-opacity="0.2"/>
</linearGradient>
<linearGradient id="paint11_linear_26_1122" x1="119.649" y1="0.941315" x2="119.649" y2="758.281" gradientUnits="userSpaceOnUse">
<stop stop-color="#27A27A"/>
<stop offset="1" stop-color="#0E3C2D" stop-opacity="0.2"/>
</linearGradient>
<linearGradient id="paint12_linear_26_1122" x1="560.489" y1="317.441" x2="560.489" y2="1074.78" gradientUnits="userSpaceOnUse">
<stop stop-color="#27A27A"/>
<stop offset="1" stop-color="#0E3C2D" stop-opacity="0.2"/>
</linearGradient>
<linearGradient id="paint13_linear_26_1122" x1="150.33" y1="0.941315" x2="150.33" y2="758.281" gradientUnits="userSpaceOnUse">
<stop stop-color="#27A27A"/>
<stop offset="1" stop-color="#0E3C2D" stop-opacity="0.2"/>
</linearGradient>
<linearGradient id="paint14_linear_26_1122" x1="560.489" y1="348.122" x2="560.489" y2="1105.46" gradientUnits="userSpaceOnUse">
<stop stop-color="#27A27A"/>
<stop offset="1" stop-color="#0E3C2D" stop-opacity="0.2"/>
</linearGradient>
<linearGradient id="paint15_linear_26_1122" x1="181.011" y1="0.941315" x2="181.011" y2="758.281" gradientUnits="userSpaceOnUse">
<stop stop-color="#27A27A"/>
<stop offset="1" stop-color="#0E3C2D" stop-opacity="0.2"/>
</linearGradient>
<linearGradient id="paint16_linear_26_1122" x1="560.489" y1="378.804" x2="560.489" y2="1136.14" gradientUnits="userSpaceOnUse">
<stop stop-color="#27A27A"/>
<stop offset="1" stop-color="#0E3C2D" stop-opacity="0.2"/>
</linearGradient>
<linearGradient id="paint17_linear_26_1122" x1="211.693" y1="0.941315" x2="211.693" y2="758.281" gradientUnits="userSpaceOnUse">
<stop stop-color="#27A27A"/>
<stop offset="1" stop-color="#0E3C2D" stop-opacity="0.2"/>
</linearGradient>
<linearGradient id="paint18_linear_26_1122" x1="560.489" y1="409.485" x2="560.489" y2="1166.82" gradientUnits="userSpaceOnUse">
<stop stop-color="#27A27A"/>
<stop offset="1" stop-color="#0E3C2D" stop-opacity="0.2"/>
</linearGradient>
<linearGradient id="paint19_linear_26_1122" x1="242.374" y1="0.941315" x2="242.374" y2="758.281" gradientUnits="userSpaceOnUse">
<stop stop-color="#27A27A"/>
<stop offset="1" stop-color="#0E3C2D" stop-opacity="0.2"/>
</linearGradient>
<linearGradient id="paint20_linear_26_1122" x1="560.489" y1="440.166" x2="560.489" y2="1197.51" gradientUnits="userSpaceOnUse">
<stop stop-color="#27A27A"/>
<stop offset="1" stop-color="#0E3C2D" stop-opacity="0.2"/>
</linearGradient>
<linearGradient id="paint21_linear_26_1122" x1="273.055" y1="0.941315" x2="273.055" y2="758.281" gradientUnits="userSpaceOnUse">
<stop stop-color="#27A27A"/>
<stop offset="1" stop-color="#0E3C2D" stop-opacity="0.2"/>
</linearGradient>
<linearGradient id="paint22_linear_26_1122" x1="560.489" y1="470.847" x2="560.489" y2="1228.19" gradientUnits="userSpaceOnUse">
<stop stop-color="#27A27A"/>
<stop offset="1" stop-color="#0E3C2D" stop-opacity="0.2"/>
</linearGradient>
<linearGradient id="paint23_linear_26_1122" x1="303.736" y1="0.941315" x2="303.736" y2="758.281" gradientUnits="userSpaceOnUse">
<stop stop-color="#27A27A"/>
<stop offset="1" stop-color="#0E3C2D" stop-opacity="0.2"/>
</linearGradient>
<linearGradient id="paint24_linear_26_1122" x1="560.489" y1="501.528" x2="560.489" y2="1258.87" gradientUnits="userSpaceOnUse">
<stop stop-color="#27A27A"/>
<stop offset="1" stop-color="#0E3C2D" stop-opacity="0.2"/>
</linearGradient>
<linearGradient id="paint25_linear_26_1122" x1="334.417" y1="0.941315" x2="334.417" y2="758.281" gradientUnits="userSpaceOnUse">
<stop stop-color="#27A27A"/>
<stop offset="1" stop-color="#0E3C2D" stop-opacity="0.2"/>
</linearGradient>
<linearGradient id="paint26_linear_26_1122" x1="560.489" y1="532.209" x2="560.489" y2="1289.55" gradientUnits="userSpaceOnUse">
<stop stop-color="#27A27A"/>
<stop offset="1" stop-color="#0E3C2D" stop-opacity="0.2"/>
</linearGradient>
<linearGradient id="paint27_linear_26_1122" x1="365.098" y1="0.941315" x2="365.098" y2="758.281" gradientUnits="userSpaceOnUse">
<stop stop-color="#27A27A"/>
<stop offset="1" stop-color="#0E3C2D" stop-opacity="0.2"/>
</linearGradient>
<linearGradient id="paint28_linear_26_1122" x1="560.489" y1="562.89" x2="560.489" y2="1320.23" gradientUnits="userSpaceOnUse">
<stop stop-color="#27A27A"/>
<stop offset="1" stop-color="#0E3C2D" stop-opacity="0.2"/>
</linearGradient>
<linearGradient id="paint29_linear_26_1122" x1="395.779" y1="0.941315" x2="395.779" y2="758.281" gradientUnits="userSpaceOnUse">
<stop stop-color="#27A27A"/>
<stop offset="1" stop-color="#0E3C2D" stop-opacity="0.2"/>
</linearGradient>
<linearGradient id="paint30_linear_26_1122" x1="560.489" y1="593.571" x2="560.489" y2="1350.91" gradientUnits="userSpaceOnUse">
<stop stop-color="#27A27A"/>
<stop offset="1" stop-color="#0E3C2D" stop-opacity="0.2"/>
</linearGradient>
<linearGradient id="paint31_linear_26_1122" x1="426.46" y1="0.941315" x2="426.46" y2="758.281" gradientUnits="userSpaceOnUse">
<stop stop-color="#27A27A"/>
<stop offset="1" stop-color="#0E3C2D" stop-opacity="0.2"/>
</linearGradient>
<linearGradient id="paint32_linear_26_1122" x1="560.489" y1="624.253" x2="560.489" y2="1381.59" gradientUnits="userSpaceOnUse">
<stop stop-color="#27A27A"/>
<stop offset="1" stop-color="#0E3C2D" stop-opacity="0.2"/>
</linearGradient>
<linearGradient id="paint33_linear_26_1122" x1="560.489" y1="654.934" x2="560.489" y2="1412.27" gradientUnits="userSpaceOnUse">
<stop stop-color="#27A27A"/>
<stop offset="1" stop-color="#0E3C2D" stop-opacity="0.2"/>
</linearGradient>
</defs>
</svg>
