<svg width="49" height="49" viewBox="0 0 49 49" fill="none" xmlns="http://www.w3.org/2000/svg">
<mask id="mask0_355_491" style="mask-type:alpha" maskUnits="userSpaceOnUse" x="0" y="0" width="49" height="49">
<rect width="49" height="49" fill="#D9D9D9"/>
</mask>
<g mask="url(#mask0_355_491)">
<path d="M0 36.75V33.5344C0 32.0712 0.748611 30.8802 2.24583 29.9615C3.74306 29.0427 5.71667 28.5833 8.16667 28.5833C8.60903 28.5833 9.03438 28.5918 9.44271 28.6089C9.85104 28.6259 10.2424 28.6684 10.6167 28.7365C10.1403 29.451 9.78299 30.1997 9.54479 30.9823C9.3066 31.7649 9.1875 32.5816 9.1875 33.4323V36.75H0ZM12.25 36.75V33.4323C12.25 32.3434 12.5477 31.3481 13.1432 30.4464C13.7387 29.5446 14.5809 28.7535 15.6698 28.0729C16.7587 27.3924 18.0602 26.8819 19.5745 26.5417C21.0887 26.2014 22.7306 26.0313 24.5 26.0313C26.3035 26.0313 27.9623 26.2014 29.4766 26.5417C30.9908 26.8819 32.2924 27.3924 33.3813 28.0729C34.4701 28.7535 35.3038 29.5446 35.8823 30.4464C36.4608 31.3481 36.75 32.3434 36.75 33.4323V36.75H12.25ZM39.8125 36.75V33.4323C39.8125 32.5476 39.7019 31.7139 39.4807 30.9313C39.2595 30.1486 38.9278 29.417 38.4854 28.7365C38.8597 28.6684 39.2425 28.6259 39.6339 28.6089C40.0252 28.5918 40.425 28.5833 40.8333 28.5833C43.2833 28.5833 45.2569 29.0342 46.7542 29.9359C48.2514 30.8377 49 32.0372 49 33.5344V36.75H39.8125ZM16.5885 32.6667H32.4625C32.1222 31.9861 31.178 31.3906 29.6297 30.8802C28.0814 30.3698 26.3715 30.1146 24.5 30.1146C22.6285 30.1146 20.9186 30.3698 19.3703 30.8802C17.8221 31.3906 16.8948 31.9861 16.5885 32.6667ZM8.16667 26.5417C7.04375 26.5417 6.08247 26.1418 5.28281 25.3422C4.48316 24.5425 4.08333 23.5813 4.08333 22.4583C4.08333 21.3014 4.48316 20.3316 5.28281 19.549C6.08247 18.7663 7.04375 18.375 8.16667 18.375C9.32361 18.375 10.2934 18.7663 11.076 19.549C11.8587 20.3316 12.25 21.3014 12.25 22.4583C12.25 23.5813 11.8587 24.5425 11.076 25.3422C10.2934 26.1418 9.32361 26.5417 8.16667 26.5417ZM40.8333 26.5417C39.7104 26.5417 38.7491 26.1418 37.9495 25.3422C37.1498 24.5425 36.75 23.5813 36.75 22.4583C36.75 21.3014 37.1498 20.3316 37.9495 19.549C38.7491 18.7663 39.7104 18.375 40.8333 18.375C41.9903 18.375 42.9601 18.7663 43.7427 19.549C44.5254 20.3316 44.9167 21.3014 44.9167 22.4583C44.9167 23.5813 44.5254 24.5425 43.7427 25.3422C42.9601 26.1418 41.9903 26.5417 40.8333 26.5417ZM24.5 24.5C22.7986 24.5 21.3524 23.9045 20.1615 22.7135C18.9705 21.5226 18.375 20.0764 18.375 18.375C18.375 16.6396 18.9705 15.1849 20.1615 14.0109C21.3524 12.837 22.7986 12.25 24.5 12.25C26.2354 12.25 27.6901 12.837 28.8641 14.0109C30.038 15.1849 30.625 16.6396 30.625 18.375C30.625 20.0764 30.038 21.5226 28.8641 22.7135C27.6901 23.9045 26.2354 24.5 24.5 24.5ZM24.5 20.4167C25.0785 20.4167 25.5634 20.221 25.9547 19.8297C26.346 19.4384 26.5417 18.9535 26.5417 18.375C26.5417 17.7965 26.346 17.3116 25.9547 16.9203C25.5634 16.529 25.0785 16.3333 24.5 16.3333C23.9215 16.3333 23.4366 16.529 23.0453 16.9203C22.654 17.3116 22.4583 17.7965 22.4583 18.375C22.4583 18.9535 22.654 19.4384 23.0453 19.8297C23.4366 20.221 23.9215 20.4167 24.5 20.4167Z" fill="#7034D2"/>
</g>
</svg>
