<svg width="37" height="37" viewBox="0 0 37 37" fill="none" xmlns="http://www.w3.org/2000/svg">
<mask id="mask0_235_1772" style="mask-type:alpha" maskUnits="userSpaceOnUse" x="0" y="0" width="37" height="37">
<rect x="0.597717" width="36.3046" height="36.3046" fill="#D9D9D9"/>
</mask>
<g mask="url(#mask0_235_1772)">
<path d="M7.40502 31.7665C6.77474 31.7665 6.23899 31.5459 5.79779 31.1047C5.35659 30.6635 5.13599 30.1278 5.13599 29.4975V26.6234L11.1868 21.2533V31.7665H7.40502ZM12.6994 31.7665V25.7158H24.801V31.7665H12.6994ZM26.3137 31.7665V19.3625L19.8469 13.6142L24.4228 9.56778L31.6081 15.9589C31.8602 16.1858 32.0493 16.4442 32.1754 16.7342C32.3014 17.0241 32.3644 17.3329 32.3644 17.6607V29.4975C32.3644 30.1278 32.1438 30.6635 31.7026 31.1047C31.2614 31.5459 30.7257 31.7665 30.0954 31.7665H26.3137ZM5.13599 24.5813V17.6607C5.13599 17.3329 5.19902 17.0178 5.32507 16.7153C5.45113 16.4127 5.64022 16.1606 5.89233 15.9589L17.2375 5.8995C17.4392 5.69781 17.6724 5.55285 17.9371 5.46461C18.2019 5.37637 18.4729 5.33224 18.7502 5.33224C19.0275 5.33224 19.2986 5.37637 19.5633 5.46461C19.828 5.55285 20.0612 5.69781 20.2629 5.8995L23.2883 8.58453L5.13599 24.5813Z" fill="#27A27A"/>
</g>
</svg>
