<svg width="31" height="31" viewBox="0 0 31 31" fill="none" xmlns="http://www.w3.org/2000/svg">
<path d="M13.6369 22.7116H16.6618V13.6369H13.6369V22.7116ZM15.1494 10.612C15.5779 10.612 15.9371 10.4671 16.227 10.1772C16.5169 9.88729 16.6618 9.52808 16.6618 9.09956C16.6618 8.67103 16.5169 8.31182 16.227 8.02193C15.9371 7.73205 15.5779 7.5871 15.1494 7.5871C14.7208 7.5871 14.3616 7.73205 14.0717 8.02193C13.7819 8.31182 13.6369 8.67103 13.6369 9.09956C13.6369 9.52808 13.7819 9.88729 14.0717 10.1772C14.3616 10.4671 14.7208 10.612 15.1494 10.612ZM15.1494 30.2739C13.0571 30.2739 11.091 29.8769 9.2508 29.0828C7.41065 28.2888 5.80997 27.2112 4.44876 25.85C3.08756 24.4888 2.00994 22.8881 1.2159 21.0479C0.42186 19.2078 0.0248413 17.2416 0.0248413 15.1494C0.0248413 13.0571 0.42186 11.091 1.2159 9.2508C2.00994 7.41065 3.08756 5.80997 4.44876 4.44876C5.80997 3.08756 7.41065 2.00994 9.2508 1.2159C11.091 0.42186 13.0571 0.0248413 15.1494 0.0248413C17.2416 0.0248413 19.2078 0.42186 21.0479 1.2159C22.8881 2.00994 24.4888 3.08756 25.85 4.44876C27.2112 5.80997 28.2888 7.41065 29.0828 9.2508C29.8769 11.091 30.2739 13.0571 30.2739 15.1494C30.2739 17.2416 29.8769 19.2078 29.0828 21.0479C28.2888 22.8881 27.2112 24.4888 25.85 25.85C24.4888 27.2112 22.8881 28.2888 21.0479 29.0828C19.2078 29.8769 17.2416 30.2739 15.1494 30.2739ZM15.1494 27.249C18.5272 27.249 21.3882 26.0768 23.7325 23.7325C26.0768 21.3882 27.249 18.5272 27.249 15.1494C27.249 11.7716 26.0768 8.9105 23.7325 6.5662C21.3882 4.2219 18.5272 3.04975 15.1494 3.04975C11.7716 3.04975 8.9105 4.2219 6.5662 6.5662C4.2219 8.9105 3.04975 11.7716 3.04975 15.1494C3.04975 18.5272 4.2219 21.3882 6.5662 23.7325C8.9105 26.0768 11.7716 27.249 15.1494 27.249Z" fill="#D9D9D9"/>
</svg>
