<svg width="37" height="37" viewBox="0 0 37 37" fill="none" xmlns="http://www.w3.org/2000/svg">
<mask id="mask0_340_38" style="mask-type:alpha" maskUnits="userSpaceOnUse" x="0" y="0" width="37" height="37">
<rect width="36.2989" height="36.2989" fill="#D9D9D9" fill-opacity="0.5"/>
</mask>
<g mask="url(#mask0_340_38)">
<path d="M16.637 25.7117H19.6619V16.637H16.637V25.7117ZM18.1494 13.6121C18.578 13.6121 18.9372 13.4671 19.2271 13.1772C19.5169 12.8874 19.6619 12.5281 19.6619 12.0996C19.6619 11.6711 19.5169 11.3119 19.2271 11.022C18.9372 10.7321 18.578 10.5872 18.1494 10.5872C17.7209 10.5872 17.3617 10.7321 17.0718 11.022C16.7819 11.3119 16.637 11.6711 16.637 12.0996C16.637 12.5281 16.7819 12.8874 17.0718 13.1772C17.3617 13.4671 17.7209 13.6121 18.1494 13.6121ZM18.1494 33.274C16.0572 33.274 14.091 32.8769 12.2509 32.0829C10.4107 31.2889 8.81003 30.2112 7.44883 28.85C6.08762 27.4888 5.01 25.8881 4.21596 24.048C3.42192 22.2078 3.0249 20.2417 3.0249 18.1494C3.0249 16.0572 3.42192 14.091 4.21596 12.2509C5.01 10.4107 6.08762 8.81003 7.44883 7.44883C8.81003 6.08762 10.4107 5.01 12.2509 4.21596C14.091 3.42192 16.0572 3.0249 18.1494 3.0249C20.2417 3.0249 22.2078 3.42192 24.048 4.21596C25.8881 5.01 27.4888 6.08762 28.85 7.44883C30.2112 8.81003 31.2889 10.4107 32.0829 12.2509C32.8769 14.091 33.274 16.0572 33.274 18.1494C33.274 20.2417 32.8769 22.2078 32.0829 24.048C31.2889 25.8881 30.2112 27.4888 28.85 28.85C27.4888 30.2112 25.8881 31.2889 24.048 32.0829C22.2078 32.8769 20.2417 33.274 18.1494 33.274ZM18.1494 30.249C21.5272 30.249 24.3883 29.0769 26.7326 26.7326C29.0769 24.3883 30.249 21.5272 30.249 18.1494C30.249 14.7716 29.0769 11.9106 26.7326 9.56626C24.3883 7.22196 21.5272 6.04981 18.1494 6.04981C14.7716 6.04981 11.9106 7.22196 9.56626 9.56626C7.22196 11.9106 6.04981 14.7716 6.04981 18.1494C6.04981 21.5272 7.22196 24.3883 9.56626 26.7326C11.9106 29.0769 14.7716 30.249 18.1494 30.249Z" fill="white"/>
</g>
</svg>
