<svg width="51" height="51" viewBox="0 0 51 51" fill="none" xmlns="http://www.w3.org/2000/svg">
<path d="M25.5 45.1667C28.5729 45.1667 31.1849 44.0911 33.3359 41.9401C35.487 39.7891 36.5625 37.1771 36.5625 34.1042C36.5625 31.0313 35.487 28.4193 33.3359 26.2682C31.1849 24.1172 28.5729 23.0417 25.5 23.0417C22.4271 23.0417 19.8151 24.1172 17.6641 26.2682C15.513 28.4193 14.4375 31.0313 14.4375 34.1042C14.4375 37.1771 15.513 39.7891 17.6641 41.9401C19.8151 44.0911 22.4271 45.1667 25.5 45.1667ZM18.3094 19.8458C19.1288 19.3951 19.9995 19.0366 20.9214 18.7703C21.8432 18.504 22.7754 18.3299 23.7177 18.2479L17.5104 5.83333H11.3646L18.3094 19.8458ZM32.6906 19.8458L39.6969 5.83333H33.4896L28.2656 16.2812L29.4333 18.6167C30.007 18.7806 30.5601 18.9547 31.0927 19.1391C31.6254 19.3234 32.158 19.559 32.6906 19.8458ZM11.7333 42.2167C11.0368 41.0285 10.4939 39.7481 10.1047 38.3755C9.71546 37.003 9.52084 35.5792 9.52084 34.1042C9.52084 32.6292 9.71546 31.2054 10.1047 29.8328C10.4939 28.4602 11.0368 27.1799 11.7333 25.9917C10.0125 26.5653 8.59896 27.5793 7.49271 29.0339C6.38646 30.4884 5.83334 32.1785 5.83334 34.1042C5.83334 36.0299 6.38646 37.72 7.49271 39.1745C8.59896 40.629 10.0125 41.6431 11.7333 42.2167ZM39.2667 42.2167C40.9875 41.6431 42.401 40.629 43.5073 39.1745C44.6135 37.72 45.1667 36.0299 45.1667 34.1042C45.1667 32.1785 44.6135 30.4884 43.5073 29.0339C42.401 27.5793 40.9875 26.5653 39.2667 25.9917C39.9632 27.1799 40.5061 28.4602 40.8953 29.8328C41.2846 31.2054 41.4792 32.6292 41.4792 34.1042C41.4792 35.5792 41.2846 37.003 40.8953 38.3755C40.5061 39.7481 39.9632 41.0285 39.2667 42.2167ZM25.5 50.0833C23.8611 50.0833 22.2939 49.8477 20.7984 49.3766C19.303 48.9054 17.9201 48.2601 16.65 47.4406C16.2813 47.5226 15.9125 47.5738 15.5438 47.5943C15.175 47.6148 14.7858 47.625 14.376 47.625C10.6476 47.625 7.47223 46.3139 4.85001 43.6917C2.22778 41.0694 0.916672 37.8941 0.916672 34.1656C0.916672 30.601 2.10487 27.5486 4.48126 25.0083C6.85764 22.4681 9.78716 21.0545 13.2698 20.7677L3.37501 0.916666H20.5833L25.5 10.75L30.4167 0.916666H47.625L37.7917 20.6448C41.2743 20.9726 44.1936 22.4066 46.5495 24.9469C48.9054 27.4872 50.0833 30.5396 50.0833 34.1042C50.0833 37.8736 48.7722 41.0694 46.15 43.6917C43.5278 46.3139 40.3319 47.625 36.5625 47.625C36.1938 47.625 35.8148 47.6148 35.4255 47.5943C35.0363 47.5738 34.6573 47.5226 34.2885 47.4406C33.0184 48.2601 31.6458 48.9054 30.1708 49.3766C28.6958 49.8477 27.1389 50.0833 25.5 50.0833ZM20.9521 40.8646L22.6729 35.2719L18.125 32.0146H23.7177L25.5 26.1146L27.2823 32.0146H32.875L28.3271 35.2719L30.0479 40.8646L25.5 37.4229L20.9521 40.8646Z" fill="#44FBF0"/>
</svg>
