<svg width="33" height="32" viewBox="0 0 33 32" fill="none" xmlns="http://www.w3.org/2000/svg">
<mask id="mask0_495_1283" style="mask-type:alpha" maskUnits="userSpaceOnUse" x="0" y="0" width="33" height="32">
<rect x="0.565063" width="32.4199" height="32" fill="#D9D9D9"/>
</mask>
<g mask="url(#mask0_495_1283)">
<path d="M26.5686 27.9998L24.6774 26.1332L26.805 23.9998H21.1652V21.3332H26.805L24.6774 19.1998L26.5686 17.3332L31.9719 22.6665L26.5686 27.9998ZM14.0734 19.9998C15.3341 19.9998 16.4711 19.6943 17.4842 19.0832C18.4973 18.4721 19.2966 17.6665 19.8819 16.6665C19.094 16.0221 18.2047 15.5276 17.2141 15.1832C16.2234 14.8387 15.1766 14.6665 14.0734 14.6665C12.9702 14.6665 11.9233 14.8387 10.9327 15.1832C9.94208 15.5276 9.05278 16.0221 8.2648 16.6665C8.85016 17.6665 9.6494 18.4721 10.6625 19.0832C11.6756 19.6943 12.8126 19.9998 14.0734 19.9998ZM14.0734 13.3332C14.8163 13.3332 15.4523 13.0721 15.9814 12.5498C16.5105 12.0276 16.775 11.3998 16.775 10.6665C16.775 9.93317 16.5105 9.30539 15.9814 8.78317C15.4523 8.26095 14.8163 7.99984 14.0734 7.99984C13.3304 7.99984 12.6944 8.26095 12.1653 8.78317C11.6362 9.30539 11.3717 9.93317 11.3717 10.6665C11.3717 11.3998 11.6362 12.0276 12.1653 12.5498C12.6944 13.0721 13.3304 13.3332 14.0734 13.3332ZM14.0734 29.3332C10.4486 26.2887 7.74135 23.4609 5.9515 20.8498C4.16165 18.2387 3.26672 15.8221 3.26672 13.5998C3.26672 10.2665 4.35302 7.61095 6.5256 5.63317C8.69819 3.65539 11.2141 2.6665 14.0734 2.6665C16.9326 2.6665 19.4486 3.65539 21.6211 5.63317C23.7937 7.61095 24.88 10.2665 24.88 13.5998C24.88 13.7998 24.8744 14.0054 24.8631 14.2165C24.8519 14.4276 24.8237 14.6443 24.7787 14.8665H22.0433C22.0883 14.6443 22.1221 14.4276 22.1446 14.2165C22.1671 14.0054 22.1784 13.7998 22.1784 13.5998C22.1784 11.1776 21.396 9.19428 19.8313 7.64984C18.2666 6.10539 16.3473 5.33317 14.0734 5.33317C11.7995 5.33317 9.88017 6.10539 8.31545 7.64984C6.75074 9.19428 5.96839 11.1776 5.96839 13.5998C5.96839 15.1776 6.63254 16.9832 7.96086 19.0165C9.28918 21.0498 11.3267 23.3109 14.0734 25.7998C14.5912 25.3554 15.0696 24.9109 15.5086 24.4665C15.9477 24.0221 16.3698 23.5887 16.775 23.1665L17.7375 24.1165C17.9739 24.3498 18.1878 24.5665 18.3791 24.7665L18.6662 25.0665C18.0133 25.7554 17.3041 26.4554 16.5386 27.1665C15.7732 27.8776 14.9514 28.5998 14.0734 29.3332Z" fill="#44FBF0"/>
</g>
</svg>
