<svg width="37" height="37" viewBox="0 0 37 37" fill="none" xmlns="http://www.w3.org/2000/svg">
<mask id="mask0_235_1726" style="mask-type:alpha" maskUnits="userSpaceOnUse" x="0" y="0" width="37" height="37">
<rect x="0.298828" width="36.2989" height="36.2989" fill="#D9D9D9"/>
</mask>
<g mask="url(#mask0_235_1726)">
<path d="M7.86115 28.7366H21.4732V21.1744H29.0355V7.56229H7.86115V28.7366ZM7.86115 31.7615C7.0293 31.7615 6.31719 31.4653 5.72481 30.873C5.13243 30.2806 4.83624 29.5685 4.83624 28.7366V7.56229C4.83624 6.73044 5.13243 6.01833 5.72481 5.42595C6.31719 4.83357 7.0293 4.53738 7.86115 4.53738H29.0355C29.8673 4.53738 30.5794 4.83357 31.1718 5.42595C31.7642 6.01833 32.0604 6.73044 32.0604 7.56229V22.6868L22.9857 31.7615H7.86115ZM10.8861 21.1744V18.1495H18.4483V21.1744H10.8861ZM10.8861 15.1246V12.0996H26.0106V15.1246H10.8861Z" fill="white" fill-opacity="0.5"/>
</g>
</svg>
