<svg width="37" height="37" viewBox="0 0 37 37" fill="none" xmlns="http://www.w3.org/2000/svg">
<mask id="mask0_235_1732" style="mask-type:alpha" maskUnits="userSpaceOnUse" x="0" y="0" width="37" height="37">
<rect x="0.201172" width="36.2989" height="36.2989" fill="#D9D9D9"/>
</mask>
<g mask="url(#mask0_235_1732)">
<path d="M27.0472 30.6271C25.4591 30.6271 24.1168 30.0789 23.0203 28.9823C21.9238 27.8858 21.3755 26.5435 21.3755 24.9554C21.3755 23.3674 21.9238 22.0251 23.0203 20.9285C24.1168 19.832 25.4591 19.2837 27.0472 19.2837C28.6353 19.2837 29.9776 19.832 31.0741 20.9285C32.1706 22.0251 32.7189 23.3674 32.7189 24.9554C32.7189 26.5435 32.1706 27.8858 31.0741 28.9823C29.9776 30.0789 28.6353 30.6271 27.0472 30.6271ZM27.0472 27.6022C27.7782 27.6022 28.4021 27.3438 28.9189 26.8271C29.4356 26.3103 29.694 25.6865 29.694 24.9554C29.694 24.2244 29.4356 23.6005 28.9189 23.0838C28.4021 22.567 27.7782 22.3086 27.0472 22.3086C26.3162 22.3086 25.6923 22.567 25.1755 23.0838C24.6588 23.6005 24.4004 24.2244 24.4004 24.9554C24.4004 25.6865 24.6588 26.3103 25.1755 26.8271C25.6923 27.3438 26.3162 27.6022 27.0472 27.6022ZM6.25098 26.4679V23.443H18.3506V26.4679H6.25098ZM9.654 17.0151C8.06592 17.0151 6.72362 16.4668 5.62709 15.3703C4.53056 14.2737 3.9823 12.9314 3.9823 11.3434C3.9823 9.75528 4.53056 8.41298 5.62709 7.31645C6.72362 6.21993 8.06592 5.67166 9.654 5.67166C11.2421 5.67166 12.5844 6.21993 13.6809 7.31645C14.7774 8.41298 15.3257 9.75528 15.3257 11.3434C15.3257 12.9314 14.7774 14.2737 13.6809 15.3703C12.5844 16.4668 11.2421 17.0151 9.654 17.0151ZM9.654 13.9902C10.385 13.9902 11.0089 13.7318 11.5257 13.215C12.0424 12.6983 12.3008 12.0744 12.3008 11.3434C12.3008 10.6123 12.0424 9.98845 11.5257 9.4717C11.0089 8.95494 10.385 8.69657 9.654 8.69657C8.92298 8.69657 8.29909 8.95494 7.78234 9.4717C7.26558 9.98845 7.0072 10.6123 7.0072 11.3434C7.0072 12.0744 7.26558 12.6983 7.78234 13.215C8.29909 13.7318 8.92298 13.9902 9.654 13.9902ZM18.3506 12.8558V9.83091H30.4502V12.8558H18.3506Z" fill="white" fill-opacity="0.5"/>
</g>
</svg>
