<svg width="47" height="48" viewBox="0 0 47 48" fill="none" xmlns="http://www.w3.org/2000/svg">
<path d="M16.2899 33.1034C17.5653 33.1034 18.6571 32.6493 19.5654 31.741C20.4737 30.8328 20.9278 29.7409 20.9278 28.4655C20.9278 27.19 20.4737 26.0982 19.5654 25.1899C18.6571 24.2817 17.5653 23.8275 16.2899 23.8275C15.0144 23.8275 13.9226 24.2817 13.0143 25.1899C12.1061 26.0982 11.6519 27.19 11.6519 28.4655C11.6519 29.7409 12.1061 30.8328 13.0143 31.741C13.9226 32.6493 15.0144 33.1034 16.2899 33.1034ZM30.2036 33.1034C31.4791 33.1034 32.5709 32.6493 33.4792 31.741C34.3874 30.8328 34.8416 29.7409 34.8416 28.4655C34.8416 27.19 34.3874 26.0982 33.4792 25.1899C32.5709 24.2817 31.4791 23.8275 30.2036 23.8275C28.9282 23.8275 27.8364 24.2817 26.9281 25.1899C26.0198 26.0982 25.5657 27.19 25.5657 28.4655C25.5657 29.7409 26.0198 30.8328 26.9281 31.741C27.8364 32.6493 28.9282 33.1034 30.2036 33.1034ZM23.2468 21.5086C24.5222 21.5086 25.614 21.0545 26.5223 20.1462C27.4305 19.2379 27.8847 18.1461 27.8847 16.8707C27.8847 15.5952 27.4305 14.5034 26.5223 13.5951C25.614 12.6869 24.5222 12.2327 23.2468 12.2327C21.9713 12.2327 20.8795 12.6869 19.9712 13.5951C19.063 14.5034 18.6088 15.5952 18.6088 16.8707C18.6088 18.1461 19.063 19.2379 19.9712 20.1462C20.8795 21.0545 21.9713 21.5086 23.2468 21.5086ZM23.2468 47.0172C20.0389 47.0172 17.0242 46.4084 14.2028 45.191C11.3814 43.9735 8.92716 42.3213 6.84009 40.2342C4.75303 38.1471 3.10077 35.6929 1.88331 32.8715C0.665857 30.0501 0.0571289 27.0354 0.0571289 23.8275C0.0571289 20.6197 0.665857 17.605 1.88331 14.7836C3.10077 11.9622 4.75303 9.50796 6.84009 7.42089C8.92716 5.33382 11.3814 3.68156 14.2028 2.46411C17.0242 1.24665 20.0389 0.637924 23.2468 0.637924C26.4547 0.637924 29.4693 1.24665 32.2907 2.46411C35.1121 3.68156 37.5663 5.33382 39.6534 7.42089C41.7405 9.50796 43.3927 11.9622 44.6102 14.7836C45.8277 17.605 46.4364 20.6197 46.4364 23.8275C46.4364 27.0354 45.8277 30.0501 44.6102 32.8715C43.3927 35.6929 41.7405 38.1471 39.6534 40.2342C37.5663 42.3213 35.1121 43.9735 32.2907 45.191C29.4693 46.4084 26.4547 47.0172 23.2468 47.0172ZM23.2468 42.3792C28.4258 42.3792 32.8125 40.5821 36.4069 36.9877C40.0013 33.3933 41.7985 29.0066 41.7985 23.8275C41.7985 18.6485 40.0013 14.2618 36.4069 10.6674C32.8125 7.07305 28.4258 5.27585 23.2468 5.27585C18.0677 5.27585 13.681 7.07305 10.0866 10.6674C6.49225 14.2618 4.69505 18.6485 4.69505 23.8275C4.69505 29.0066 6.49225 33.3933 10.0866 36.9877C13.681 40.5821 18.0677 42.3792 23.2468 42.3792Z" fill="#27A27A"/>
</svg>
