<svg width="51" height="51" viewBox="0 0 51 51" fill="none" xmlns="http://www.w3.org/2000/svg">
<path d="M10.3813 38.0375C12.4708 36.4396 14.8063 35.1797 17.3875 34.2578C19.9688 33.3359 22.6729 32.875 25.5 32.875C28.3271 32.875 31.0313 33.3359 33.6125 34.2578C36.1938 35.1797 38.5292 36.4396 40.6188 38.0375C42.0528 36.3576 43.1693 34.4524 43.9682 32.3219C44.7672 30.1913 45.1667 27.9174 45.1667 25.5C45.1667 20.0507 43.2512 15.4106 39.4203 11.5797C35.5894 7.74878 30.9493 5.83332 25.5 5.83332C20.0507 5.83332 15.4106 7.74878 11.5797 11.5797C7.74879 15.4106 5.83334 20.0507 5.83334 25.5C5.83334 27.9174 6.23282 30.1913 7.03178 32.3219C7.83073 34.4524 8.94723 36.3576 10.3813 38.0375ZM25.5 27.9583C23.0826 27.9583 21.0443 27.1286 19.3849 25.4693C17.7255 23.8099 16.8958 21.7715 16.8958 19.3542C16.8958 16.9368 17.7255 14.8984 19.3849 13.2391C21.0443 11.5797 23.0826 10.75 25.5 10.75C27.9174 10.75 29.9557 11.5797 31.6151 13.2391C33.2745 14.8984 34.1042 16.9368 34.1042 19.3542C34.1042 21.7715 33.2745 23.8099 31.6151 25.4693C29.9557 27.1286 27.9174 27.9583 25.5 27.9583ZM25.5 50.0833C22.0993 50.0833 18.9035 49.438 15.9125 48.1474C12.9215 46.8568 10.3198 45.1052 8.1073 42.8927C5.8948 40.6802 4.14323 38.0785 2.85261 35.0875C1.56198 32.0965 0.916672 28.9007 0.916672 25.5C0.916672 22.0993 1.56198 18.9035 2.85261 15.9125C4.14323 12.9215 5.8948 10.3198 8.1073 8.10728C10.3198 5.89478 12.9215 4.14322 15.9125 2.85259C18.9035 1.56197 22.0993 0.916656 25.5 0.916656C28.9007 0.916656 32.0965 1.56197 35.0875 2.85259C38.0785 4.14322 40.6802 5.89478 42.8927 8.10728C45.1052 10.3198 46.8568 12.9215 48.1474 15.9125C49.438 18.9035 50.0833 22.0993 50.0833 25.5C50.0833 28.9007 49.438 32.0965 48.1474 35.0875C46.8568 38.0785 45.1052 40.6802 42.8927 42.8927C40.6802 45.1052 38.0785 46.8568 35.0875 48.1474C32.0965 49.438 28.9007 50.0833 25.5 50.0833ZM25.5 45.1667C27.6715 45.1667 29.7201 44.8491 31.6458 44.2141C33.5715 43.579 35.3333 42.6674 36.9313 41.4792C35.3333 40.291 33.5715 39.3793 31.6458 38.7443C29.7201 38.1092 27.6715 37.7917 25.5 37.7917C23.3285 37.7917 21.2799 38.1092 19.3542 38.7443C17.4285 39.3793 15.6667 40.291 14.0688 41.4792C15.6667 42.6674 17.4285 43.579 19.3542 44.2141C21.2799 44.8491 23.3285 45.1667 25.5 45.1667ZM25.5 23.0417C26.5653 23.0417 27.4462 22.6934 28.1427 21.9969C28.8392 21.3003 29.1875 20.4194 29.1875 19.3542C29.1875 18.2889 28.8392 17.408 28.1427 16.7114C27.4462 16.0149 26.5653 15.6667 25.5 15.6667C24.4347 15.6667 23.5538 16.0149 22.8573 16.7114C22.1608 17.408 21.8125 18.2889 21.8125 19.3542C21.8125 20.4194 22.1608 21.3003 22.8573 21.9969C23.5538 22.6934 24.4347 23.0417 25.5 23.0417Z" fill="#2758A2"/>
</svg>
