<svg width="24" height="24" viewBox="0 0 24 24" fill="none" xmlns="http://www.w3.org/2000/svg">
<mask id="mask0_370_368" style="mask-type:alpha" maskUnits="userSpaceOnUse" x="0" y="0" width="24" height="24">
<rect width="24" height="24" fill="#D9D9D9"/>
</mask>
<g mask="url(#mask0_370_368)">
<path d="M3 20V4L17.3 10H17C16.4167 10 15.8667 10.0667 15.35 10.2C14.8333 10.3333 14.3333 10.5167 13.85 10.75L5 7V10.5L11 12L5 13.5V17L10.4 14.7C10.2667 15.0833 10.1667 15.4625 10.1 15.8375C10.0333 16.2125 10 16.6 10 17V17.05L3 20ZM17 22C15.6167 22 14.4375 21.5125 13.4625 20.5375C12.4875 19.5625 12 18.3833 12 17C12 15.6167 12.4875 14.4375 13.4625 13.4625C14.4375 12.4875 15.6167 12 17 12C18.3833 12 19.5625 12.4875 20.5375 13.4625C21.5125 14.4375 22 15.6167 22 17C22 18.3833 21.5125 19.5625 20.5375 20.5375C19.5625 21.5125 18.3833 22 17 22ZM18.65 19.35L19.35 18.65L17.5 16.8V14H16.5V17.2L18.65 19.35Z" fill="#D25A34"/>
</g>
</svg>
