<svg width="49" height="50" viewBox="0 0 49 50" fill="none" xmlns="http://www.w3.org/2000/svg">
<mask id="mask0_495_1272" style="mask-type:alpha" maskUnits="userSpaceOnUse" x="0" y="0" width="49" height="50">
<rect width="49" height="49.1286" fill="#D9D9D9"/>
</mask>
<g mask="url(#mask0_495_1272)">
<path d="M11.2291 22.5172L4.08325 18.4232V10.2351L11.2291 6.14102L18.3749 10.2351V18.4232L11.2291 22.5172ZM11.2291 17.8091L14.2916 16.0691V12.5891L11.2291 10.8492L8.16658 12.5891V16.0691L11.2291 17.8091ZM33.6874 24.1037V19.3443L40.8332 23.5407V37.8699L28.5833 45.0345L16.3333 37.8699V23.5407L23.4791 19.3443V24.1037L20.4166 25.8948V35.5158L28.5833 40.2752L36.7499 35.5158V25.8948L33.6874 24.1037ZM26.5416 28.6583V4.09399H44.9166L40.8332 10.2351L44.9166 16.3761H30.6249V28.6583H26.5416Z" fill="#E44545"/>
</g>
</svg>
