<svg width="29" height="34" viewBox="0 0 29 34" fill="none" xmlns="http://www.w3.org/2000/svg">
<path d="M9.66667 3.2381V0H19.3333V3.2381H9.66667ZM14.5 34C12.513 34 10.64 33.6155 8.88125 32.8464C7.12245 32.0774 5.58519 31.0317 4.26944 29.7095C2.9537 28.3873 1.91319 26.8425 1.14792 25.075C0.382639 23.3075 0 21.4254 0 19.4286C0 17.4317 0.382639 15.5496 1.14792 13.7821C1.91319 12.0147 2.9537 10.4698 4.26944 9.14762C5.58519 7.8254 7.12245 6.77976 8.88125 6.01071C10.64 5.24167 12.513 4.85714 14.5 4.85714C16.1648 4.85714 17.7625 5.12698 19.2931 5.66667C20.8236 6.20635 22.2602 6.98889 23.6028 8.01429L25.8583 5.74762L28.1139 8.01429L25.8583 10.281C26.8787 11.6302 27.6574 13.0738 28.1944 14.6119C28.7315 16.15 29 17.7556 29 19.4286C29 21.4254 28.6174 23.3075 27.8521 25.075C27.0868 26.8425 26.0463 28.3873 24.7306 29.7095C23.4148 31.0317 21.8775 32.0774 20.1188 32.8464C18.36 33.6155 16.487 34 14.5 34ZM14.5 30.7619C17.6148 30.7619 20.2731 29.6556 22.475 27.4429C24.6769 25.2302 25.7778 22.5587 25.7778 19.4286C25.7778 16.2984 24.6769 13.627 22.475 11.4143C20.2731 9.20159 17.6148 8.09524 14.5 8.09524C11.3852 8.09524 8.72685 9.20159 6.525 11.4143C4.32315 13.627 3.22222 16.2984 3.22222 19.4286C3.22222 22.5587 4.32315 25.2302 6.525 27.4429C8.72685 29.6556 11.3852 30.7619 14.5 30.7619ZM9.66667 25.9048H12.8889V12.9524H9.66667V25.9048ZM16.1111 25.9048H19.3333V12.9524H16.1111V25.9048Z" fill="white"/>
</svg>
